<?xml version="1.0" encoding="UTF-8" standalone="no"?>
<!DOCTYPE svg PUBLIC "-//W3C//DTD SVG 1.1//EN" "http://www.w3.org/Graphics/SVG/1.1/DTD/svg11.dtd">
<svg width="456" height="456" viewBox="0 0 456 456" fill="none" xmlns="http://www.w3.org/2000/svg">
	<path d="M224.901 167.266L239.381 142.185L268.342 142.185L282.822 167.266L268.342 192.347L239.381 192.347L224.901 167.266Z" stroke="white" stroke-width="2"/>
	<path d="M172.178 137.139L186.658 112.058L215.619 112.058L230.099 137.139L215.619 162.219L186.658 162.219L172.178 137.139Z" stroke="white" stroke-width="2"/>
	<path d="M172.178 197.393L186.658 172.313L215.619 172.313L230.099 197.393L215.619 222.474L186.658 222.474L172.178 197.393Z" stroke="white" stroke-width="2"/>
	<path d="M103.042 281H99.47V263.52C99.47 260.531 100.268 258.2 101.864 256.528C103.485 254.856 105.626 254.02 108.286 254.02C111.123 254.02 113.315 254.831 114.86 256.452C116.431 258.073 117.216 260.138 117.216 262.646C117.216 264.217 116.925 265.585 116.342 266.75C115.785 267.915 115.025 268.815 114.062 269.448C113.099 270.081 112.073 270.55 110.984 270.854C109.895 271.158 108.755 271.31 107.564 271.31H104.714V267.966H107.982C109.679 267.966 111.009 267.459 111.972 266.446C112.96 265.407 113.454 264.115 113.454 262.57C113.454 261.05 112.998 259.809 112.086 258.846C111.199 257.858 109.92 257.364 108.248 257.364C106.627 257.364 105.347 257.921 104.41 259.036C103.498 260.125 103.042 261.569 103.042 263.368V281ZM124.793 281H121.221V254.4H124.793V265.572H136.345V254.4H139.917V281H136.345V268.916H124.793V281ZM148.232 281H144.85V264.28C144.85 261.544 145.724 259.213 147.472 257.288C149.246 255.363 151.526 254.4 154.312 254.4H163.014V281H159.442V257.744H154.312C152.463 257.744 150.981 258.289 149.866 259.378C148.777 260.467 148.232 262.203 148.232 264.584V267.814C149.651 266.319 151.678 265.572 154.312 265.572H157.77V268.916H154.312C152.843 268.916 151.64 269.093 150.702 269.448C149.79 269.803 148.967 270.411 148.232 271.272V281ZM168.159 281V263.71C168.159 260.645 168.907 258.263 170.401 256.566C171.921 254.869 174.075 254.02 176.861 254.02C179.673 254.02 181.827 254.704 183.321 256.072C184.841 257.44 185.601 259.365 185.601 261.848C185.601 263.444 185.221 264.749 184.461 265.762C183.701 266.775 182.409 267.573 180.585 268.156V268.308C182.485 269.043 183.752 270.094 184.385 271.462C185.044 272.805 185.373 275.034 185.373 278.15V281H181.801V276.136C181.801 274.211 181.257 272.716 180.167 271.652C179.078 270.563 177.507 270.018 175.455 270.018H173.403V266.674H175.569C178.001 266.674 179.686 266.18 180.623 265.192C181.561 264.204 182.029 263.026 182.029 261.658C182.029 260.366 181.561 259.327 180.623 258.542C179.711 257.757 178.495 257.364 176.975 257.364C175.227 257.364 173.91 257.858 173.023 258.846C172.162 259.834 171.731 261.455 171.731 263.71V281H168.159ZM202.52 272.754H202.748L205.864 261.012C206.522 258.479 207.536 256.743 208.904 255.806C210.272 254.869 212.336 254.4 215.098 254.4V281H211.526V258.428C210.867 258.707 210.36 259.099 210.006 259.606C209.676 260.113 209.36 260.873 209.056 261.886L204.306 278.188H200.962L196.174 261.886C195.87 260.847 195.553 260.087 195.224 259.606C194.894 259.099 194.4 258.707 193.742 258.428V281H190.17V254.4C192.931 254.4 194.983 254.881 196.326 255.844C197.694 256.781 198.72 258.504 199.404 261.012L202.52 272.754ZM223.416 281H220.034V264.28C220.034 261.544 220.908 259.213 222.656 257.288C224.429 255.363 226.709 254.4 229.496 254.4H238.198V281H234.626V257.744H229.496C227.647 257.744 226.165 258.289 225.05 259.378C223.961 260.467 223.416 262.203 223.416 264.584V267.814C224.835 266.319 226.861 265.572 229.496 265.572H232.954V268.916H229.496C228.027 268.916 226.823 269.093 225.886 269.448C224.974 269.803 224.151 270.411 223.416 271.272V281ZM265.816 254.4V257.744H259.09C256.532 257.744 255.252 258.783 255.252 260.86C255.252 261.975 255.81 262.925 256.924 263.71C258.064 264.47 259.597 265.205 261.522 265.914C262.384 266.243 263.118 266.585 263.726 266.94C264.334 267.269 264.942 267.713 265.55 268.27C266.158 268.827 266.614 269.549 266.918 270.436C267.222 271.297 267.374 272.298 267.374 273.438C267.374 274.705 267.108 275.845 266.576 276.858C266.044 277.846 265.36 278.631 264.524 279.214C263.688 279.771 262.827 280.202 261.94 280.506C261.079 280.785 260.23 280.937 259.394 280.962C259.04 280.987 258.533 281 257.874 281H251.946V277.656H257.76C259.483 277.656 260.889 277.301 261.978 276.592C263.068 275.857 263.612 274.793 263.612 273.4C263.612 272.716 263.46 272.121 263.156 271.614C262.852 271.082 262.409 270.626 261.826 270.246C261.269 269.866 260.686 269.537 260.078 269.258C259.496 268.979 258.786 268.688 257.95 268.384C257.722 268.308 257.545 268.245 257.418 268.194C253.441 266.674 251.452 264.191 251.452 260.746C251.452 258.618 252.136 257.035 253.504 255.996C254.872 254.932 256.658 254.4 258.862 254.4H265.816ZM269.841 257.744V254.4H286.561V257.744H279.987V281H276.415V257.744H269.841ZM310.966 267.814C310.94 266.395 310.725 265.053 310.32 263.786C309.94 262.519 309.37 261.417 308.61 260.48C307.875 259.517 306.976 258.757 305.912 258.2C304.848 257.643 303.644 257.364 302.302 257.364C300.959 257.364 299.756 257.643 298.692 258.2C297.628 258.757 296.716 259.517 295.956 260.48C295.221 261.417 294.651 262.519 294.246 263.786C293.866 265.053 293.663 266.395 293.638 267.814C293.663 269.258 293.866 270.601 294.246 271.842C294.651 273.083 295.221 274.16 295.956 275.072C296.716 275.984 297.628 276.706 298.692 277.238C299.756 277.77 300.959 278.036 302.302 278.036C303.644 278.036 304.848 277.77 305.912 277.238C306.976 276.706 307.875 275.984 308.61 275.072C309.37 274.16 309.94 273.083 310.32 271.842C310.725 270.601 310.94 269.258 310.966 267.814ZM289.8 267.814C289.825 265.711 290.142 263.811 290.75 262.114C291.358 260.417 292.206 258.973 293.296 257.782C294.385 256.566 295.69 255.641 297.21 255.008C298.73 254.349 300.427 254.02 302.302 254.02C304.151 254.02 305.836 254.349 307.356 255.008C308.901 255.641 310.218 256.566 311.308 257.782C312.397 258.973 313.246 260.417 313.854 262.114C314.462 263.811 314.778 265.711 314.804 267.814C314.778 269.917 314.462 271.804 313.854 273.476C313.271 275.148 312.435 276.567 311.346 277.732C310.256 278.897 308.939 279.797 307.394 280.43C305.874 281.063 304.176 281.38 302.302 281.38C300.427 281.38 298.717 281.063 297.172 280.43C295.652 279.797 294.347 278.897 293.258 277.732C292.168 276.567 291.32 275.148 290.712 273.476C290.129 271.804 289.825 269.917 289.8 267.814ZM319.566 281V263.71C319.566 260.645 320.313 258.263 321.808 256.566C323.328 254.869 325.481 254.02 328.268 254.02C331.08 254.02 333.233 254.704 334.728 256.072C336.248 257.44 337.008 259.365 337.008 261.848C337.008 263.444 336.628 264.749 335.868 265.762C335.108 266.775 333.816 267.573 331.992 268.156V268.308C333.892 269.043 335.158 270.094 335.792 271.462C336.45 272.805 336.78 275.034 336.78 278.15V281H333.208V276.136C333.208 274.211 332.663 272.716 331.574 271.652C330.484 270.563 328.914 270.018 326.862 270.018H324.81V266.674H326.976C329.408 266.674 331.092 266.18 332.03 265.192C332.967 264.204 333.436 263.026 333.436 261.658C333.436 260.366 332.967 259.327 332.03 258.542C331.118 257.757 329.902 257.364 328.382 257.364C326.634 257.364 325.316 257.858 324.43 258.846C323.568 259.834 323.138 261.455 323.138 263.71V281H319.566ZM356.51 281H341.386V260.746C341.386 258.871 341.981 257.364 343.172 256.224C343.983 255.464 344.895 254.97 345.908 254.742C346.921 254.514 348.163 254.4 349.632 254.4H356.51V257.744H349.138C346.351 257.744 344.958 258.909 344.958 261.24V265.572H353.736V268.916H344.958V277.656H356.51V281Z" fill="white"/>
	<path d="M150.1 320H147.75V302.5H150.1V320ZM160.709 320H158.359V302.5H164.534C166.601 302.5 168.143 302.967 169.159 303.9C170.176 304.817 170.684 306.267 170.684 308.25V320H168.334V307.925C168.334 306.792 167.984 305.975 167.284 305.475C166.601 304.958 165.693 304.7 164.559 304.7H160.709V320ZM190.758 302.5V310.925C190.758 313.175 190.241 315.133 189.208 316.8C188.174 318.45 186.641 319.683 184.608 320.5C182.591 319.7 181.058 318.492 180.008 316.875C178.958 315.258 178.433 313.35 178.433 311.15V302.5H180.833V310.85C180.833 312.517 181.108 313.917 181.658 315.05C182.208 316.183 183.199 317.142 184.633 317.925C186.033 317.125 187.008 316.158 187.558 315.025C188.124 313.892 188.408 312.5 188.408 310.85V302.5H190.758ZM208.446 320H198.496V306.675C198.496 305.442 198.888 304.45 199.671 303.7C200.204 303.2 200.804 302.875 201.471 302.725C202.138 302.575 202.954 302.5 203.921 302.5H208.446V304.7H203.596C201.763 304.7 200.846 305.467 200.846 307V309.85H206.621V312.05H200.846V317.8H208.446V320ZM218.416 320H216.066V302.5H222.241C224.308 302.5 225.85 302.967 226.866 303.9C227.883 304.817 228.391 306.267 228.391 308.25V320H226.041V307.925C226.041 306.792 225.691 305.975 224.991 305.475C224.308 304.958 223.4 304.7 222.266 304.7H218.416V320ZM235.39 304.7V302.5H246.39V304.7H242.065V320H239.715V304.7H235.39ZM267.196 311.325C267.179 310.392 267.037 309.508 266.771 308.675C266.521 307.842 266.146 307.117 265.646 306.5C265.162 305.867 264.571 305.367 263.871 305C263.171 304.633 262.379 304.45 261.496 304.45C260.612 304.45 259.821 304.633 259.121 305C258.421 305.367 257.821 305.867 257.321 306.5C256.837 307.117 256.462 307.842 256.196 308.675C255.946 309.508 255.812 310.392 255.796 311.325C255.812 312.275 255.946 313.158 256.196 313.975C256.462 314.792 256.837 315.5 257.321 316.1C257.821 316.7 258.421 317.175 259.121 317.525C259.821 317.875 260.612 318.05 261.496 318.05C262.379 318.05 263.171 317.875 263.871 317.525C264.571 317.175 265.162 316.7 265.646 316.1C266.146 315.5 266.521 314.792 266.771 313.975C267.037 313.158 267.179 312.275 267.196 311.325ZM253.271 311.325C253.287 309.942 253.496 308.692 253.896 307.575C254.296 306.458 254.854 305.508 255.571 304.725C256.287 303.925 257.146 303.317 258.146 302.9C259.146 302.467 260.262 302.25 261.496 302.25C262.712 302.25 263.821 302.467 264.821 302.9C265.837 303.317 266.704 303.925 267.421 304.725C268.137 305.508 268.696 306.458 269.096 307.575C269.496 308.692 269.704 309.942 269.721 311.325C269.704 312.708 269.496 313.95 269.096 315.05C268.712 316.15 268.162 317.083 267.446 317.85C266.729 318.617 265.862 319.208 264.846 319.625C263.846 320.042 262.729 320.25 261.496 320.25C260.262 320.25 259.137 320.042 258.121 319.625C257.121 319.208 256.262 318.617 255.546 317.85C254.829 317.083 254.271 316.15 253.871 315.05C253.487 313.95 253.287 312.708 253.271 311.325ZM277.604 320V308.625C277.604 306.608 278.095 305.042 279.079 303.925C280.079 302.808 281.495 302.25 283.329 302.25C285.179 302.25 286.595 302.7 287.579 303.6C288.579 304.5 289.079 305.767 289.079 307.4C289.079 308.45 288.829 309.308 288.329 309.975C287.829 310.642 286.979 311.167 285.779 311.55V311.65C287.029 312.133 287.862 312.825 288.279 313.725C288.712 314.608 288.929 316.075 288.929 318.125V320H286.579V316.8C286.579 315.533 286.22 314.55 285.504 313.85C284.787 313.133 283.754 312.775 282.404 312.775H281.054V310.575H282.479C284.079 310.575 285.187 310.25 285.804 309.6C286.42 308.95 286.729 308.175 286.729 307.275C286.729 306.425 286.42 305.742 285.804 305.225C285.204 304.708 284.404 304.45 283.404 304.45C282.254 304.45 281.387 304.775 280.804 305.425C280.237 306.075 279.954 307.142 279.954 308.625V320H277.604ZM307.534 302.5V303.75C307.534 305.783 307.151 307.65 306.384 309.35C305.634 311.033 304.534 312.317 303.084 313.2V320H300.734V313.25C299.284 312.383 298.167 311.125 297.384 309.475C296.601 307.808 296.209 305.975 296.209 303.975V302.5H298.609V303.75C298.609 305.467 298.851 306.942 299.334 308.175C299.834 309.392 300.692 310.392 301.909 311.175C304.092 309.725 305.184 307.25 305.184 303.75V302.5H307.534Z" fill="white"/>
</svg>