<?xml version="1.0" encoding="UTF-8" standalone="no"?>
<!DOCTYPE svg PUBLIC "-//W3C//DTD SVG 1.1//EN" "http://www.w3.org/Graphics/SVG/1.1/DTD/svg11.dtd">
<svg width="456" height="456" viewBox="0 0 456 456" fill="none" xmlns="http://www.w3.org/2000/svg">
	<path d="M52.7402 200.666V221.904C52.7402 229.138 54.0238 230.422 61.142 230.422H63.8259V236.257H24.7341V230.422H27.5347C31.1522 230.422 33.2526 229.839 34.5362 228.672C35.7032 227.505 35.9365 226.338 35.9365 221.904V172.776C35.9365 168.342 35.7032 167.175 34.5362 166.008C33.2526 164.841 31.2689 164.258 27.5347 164.258H24.7341V158.423H69.6605C82.9633 158.423 91.1317 165.775 91.1317 177.677C91.1317 185.612 87.5143 192.847 81.6797 196.698C77.5955 199.382 71.1774 201.016 64.4093 201.016L53.9071 200.666H52.7402ZM52.7402 164.258V194.831C54.8406 195.064 55.7741 195.064 57.2911 195.064C62.8923 195.064 66.9765 194.131 69.5438 192.38C72.8111 189.93 74.7949 185.146 74.7949 179.661C74.7949 173.827 72.111 168.225 68.2602 166.008C66.043 164.725 62.8923 164.141 57.8746 164.141C56.2409 164.141 55.074 164.141 52.7402 164.258ZM114.682 154.806V191.914C120.75 186.079 126.234 183.395 132.185 183.395C138.02 183.395 143.154 186.079 145.488 190.397C146.889 193.197 147.122 194.364 147.122 201.366V222.254C147.122 230.189 147.239 230.422 151.79 230.422H154.707V236.257H126.701V230.422H127.518C132.069 230.422 132.185 230.305 132.185 222.254V201.599C132.185 196.465 129.618 193.314 125.534 193.314C122.15 193.314 118.416 194.831 114.682 197.982V222.254C114.682 230.189 114.798 230.422 119.349 230.422H120.633V236.257H92.2768V230.422H95.3108C99.8617 230.422 99.9784 230.189 99.9784 222.254V170.676C99.9784 164.958 99.5117 164.608 92.2768 164.141V158.307C100.328 157.723 106.513 156.79 114.682 154.806ZM206.688 222.254H212.172C212.055 232.289 206.337 238.24 197.002 238.24C191.168 238.24 186.967 235.907 184.866 231.356C179.498 235.907 173.78 238.24 168.063 238.24C160.361 238.24 155.226 232.522 155.226 223.887C155.226 217.819 157.91 213.035 162.811 210.234C165.379 208.717 165.729 208.601 177.165 205.8C179.732 205.217 182.182 204.516 184.866 203.583V197.048C184.866 192.38 182.532 189.93 177.865 189.93C174.831 189.93 172.73 191.097 171.797 193.314C171.213 194.481 171.213 194.714 170.63 197.982C170.163 200.782 167.946 202.416 164.562 202.416C160.711 202.416 157.677 199.965 157.677 196.815C157.677 193.314 160.711 188.88 164.912 186.429C168.646 184.095 173.78 182.812 179.032 182.812C185.333 182.812 191.634 184.912 195.368 188.296C198.753 191.33 199.569 194.014 199.569 202.416V224.004C199.569 227.738 200.386 228.905 202.837 228.905C205.287 228.905 206.337 227.271 206.688 222.254ZM184.866 210.701L176.698 213.268C172.614 214.552 170.046 217.703 170.046 221.67C170.046 225.638 172.497 228.555 175.881 228.555C178.565 228.555 181.015 227.505 184.866 224.587V210.701ZM231.638 199.965V222.254C231.638 230.189 231.754 230.422 236.305 230.422H240.156V236.257H209.116V230.422H212.15C216.701 230.422 216.818 230.189 216.818 222.254V198.915C216.818 192.847 216.118 192.147 210.05 192.147H209.116V186.313C214.484 186.196 215.534 185.962 227.203 183.745L229.537 183.395C231.054 185.612 231.754 188.646 231.638 192.964C236.072 186.779 240.74 183.862 245.991 183.862C250.775 183.862 254.043 187.363 254.043 192.38C254.043 197.165 251.242 200.549 247.274 200.549C244.824 200.549 243.657 199.732 242.373 197.048C241.556 195.531 240.623 194.831 239.223 194.831C237.356 194.831 235.722 195.881 232.455 199.149L231.638 199.965ZM277.684 198.682V222.254C277.684 230.189 277.8 230.422 282.351 230.422H283.635V236.257H254.929V230.422H258.196C262.747 230.422 262.864 230.189 262.864 222.254V199.499C262.747 194.948 262.747 194.948 261.813 193.781C260.763 192.497 259.48 192.147 256.679 192.147H254.929V186.313C263.797 185.612 271.966 184.445 276.05 183.395C276.75 184.796 277.45 187.596 277.684 190.864C283.285 185.612 288.419 183.395 294.254 183.395C301.489 183.395 305.69 185.612 308.724 190.864C317.125 184.679 320.276 183.395 326.227 183.395C333.112 183.395 338.597 186.429 340.58 191.33C341.747 193.897 341.864 195.648 341.864 203.466V222.254C341.864 230.305 341.981 230.422 346.532 230.422H349.449V236.257H321.443V230.422H322.376C326.927 230.422 327.044 230.189 327.044 222.254V203.466C327.044 197.982 326.927 197.515 325.41 195.765C324.127 194.248 322.143 193.431 319.926 193.431C316.425 193.431 313.508 194.714 310.007 197.632V222.254C310.007 230.189 310.124 230.422 314.675 230.422H315.725V236.257H289.469V230.422H290.52C295.071 230.422 295.187 230.189 295.187 222.254V203.466C295.187 198.565 294.954 197.632 293.554 195.881C292.153 194.364 290.053 193.547 287.602 193.547C284.102 193.547 281.301 195.064 277.684 198.682ZM401.339 222.254H406.824C406.707 232.289 400.989 238.24 391.654 238.24C385.819 238.24 381.618 235.907 379.518 231.356C374.15 235.907 368.432 238.24 362.714 238.24C355.013 238.24 349.878 232.522 349.878 223.887C349.878 217.819 352.562 213.035 357.463 210.234C360.031 208.717 360.381 208.601 371.816 205.8C374.384 205.217 376.834 204.516 379.518 203.583V197.048C379.518 192.38 377.184 189.93 372.517 189.93C369.483 189.93 367.382 191.097 366.449 193.314C365.865 194.481 365.865 194.714 365.282 197.982C364.815 200.782 362.598 202.416 359.214 202.416C355.363 202.416 352.329 199.965 352.329 196.815C352.329 193.314 355.363 188.88 359.564 186.429C363.298 184.095 368.432 182.812 373.683 182.812C379.985 182.812 386.286 184.912 390.02 188.296C393.404 191.33 394.221 194.014 394.221 202.416V224.004C394.221 227.738 395.038 228.905 397.489 228.905C399.939 228.905 400.989 227.271 401.339 222.254ZM379.518 210.701L371.35 213.268C367.265 214.552 364.698 217.703 364.698 221.67C364.698 225.638 367.149 228.555 370.533 228.555C373.217 228.555 375.667 227.505 379.518 224.587V210.701Z" fill="white"/>
	<path d="M212.739 254.5V277.138H207.838C205.854 270.02 204.687 267.803 201.77 265.235C198.036 261.851 193.018 260.101 187.417 260.101C180.415 260.101 175.748 263.718 175.748 269.203C175.748 274.687 179.948 278.421 193.718 284.84C201.303 288.34 203.404 289.507 206.788 292.074C213.322 296.859 216.59 303.277 216.59 311.212C216.59 326.032 205.387 336.417 189.517 336.417C181.232 336.417 177.031 334.784 168.513 328.132L166.296 333.85H160.694L161.745 307.945H166.296C167.813 314.012 168.979 316.58 171.663 319.847C176.331 325.682 181.932 328.482 188.817 328.482C197.102 328.482 202.937 323.348 202.937 315.996C202.937 311.212 200.603 308.061 194.535 304.56C191.734 302.927 190.451 302.343 179.248 296.975C167.229 291.374 162.095 284.723 162.095 274.921C162.095 261.851 172.247 252.749 186.717 252.749C193.718 252.749 200.72 255.083 205.854 259.051L207.838 254.5H212.739ZM239.278 265.469V282.272H252.231V289.04H239.278V320.897C239.278 323.231 239.395 324.281 239.745 325.098C240.328 326.732 241.729 327.665 243.479 327.665C246.046 327.665 247.68 326.265 250.13 322.181L256.548 324.398C252.698 331.866 247.096 335.484 239.511 335.484C232.977 335.484 227.375 332.333 225.392 327.432C224.458 325.215 224.458 325.098 224.458 313.079V289.04H217.807V282.272C227.142 280.989 230.526 276.788 231.343 265.469H239.278ZM282.675 280.639C298.895 280.639 309.864 291.374 309.864 307.244C309.864 314.829 307.413 321.714 303.096 326.498C298.195 331.983 289.909 335.484 282.208 335.484C274.623 335.484 266.338 331.983 261.437 326.498C257.119 321.714 254.669 314.829 254.669 307.361C254.669 291.141 265.638 280.639 282.675 280.639ZM282.208 287.874C274.623 287.874 270.889 294.408 270.889 307.478C270.889 322.064 274.389 328.366 282.558 328.366C290.26 328.366 293.76 321.948 293.76 307.594C293.76 294.175 290.026 287.874 282.208 287.874ZM334.393 297.209V319.497C334.393 327.432 334.509 327.665 339.06 327.665H342.911V333.5H311.871V327.665H314.905C319.456 327.665 319.573 327.432 319.573 319.497V296.159C319.573 290.091 318.873 289.391 312.805 289.391H311.871V283.556C317.239 283.439 318.289 283.206 329.958 280.989L332.292 280.639C333.809 282.856 334.509 285.89 334.393 290.207C338.827 284.023 343.495 281.105 348.746 281.105C353.53 281.105 356.798 284.606 356.798 289.624C356.798 294.408 353.997 297.792 350.029 297.792C347.579 297.792 346.412 296.975 345.128 294.292C344.312 292.775 343.378 292.074 341.978 292.074C340.111 292.074 338.477 293.125 335.21 296.392L334.393 297.209ZM407.096 307.594H371.855C371.972 319.497 376.99 326.849 385.158 326.849C390.993 326.849 395.894 323.931 400.095 317.98L406.396 321.597C402.195 329.999 392.626 335.484 382.241 335.484C366.371 335.484 355.985 324.631 355.985 308.061C355.985 292.074 367.071 280.639 382.708 280.639C397.061 280.639 407.213 290.908 407.213 305.377C407.213 305.844 407.213 306.661 407.096 307.594ZM371.622 302.227H391.693C391.576 291.958 388.659 287.29 382.591 287.29C376.523 287.29 372.672 292.425 371.622 302.227Z" fill="white"/>
	<path d="M435 302.48C412.689 496.341 137.019 430.399 55.2108 249.429C178.171 434.365 396.823 459.155 435 302.48Z" fill="#FFB514"/>
	<path d="M29.9246 157.705C52.2359 -36.1556 327.905 29.7869 409.714 210.757C286.753 25.8205 68.1018 1.03009 29.9246 157.705Z" fill="#FFB514"/>
</svg>