<?xml version="1.0" encoding="UTF-8" standalone="no"?>
<!DOCTYPE svg PUBLIC "-//W3C//DTD SVG 1.1//EN" "http://www.w3.org/Graphics/SVG/1.1/DTD/svg11.dtd">
<svg width="456" height="456" viewBox="0 0 456 456" fill="none" xmlns="http://www.w3.org/2000/svg">
	
	<path fill-rule="evenodd" clip-rule="evenodd" d="M389.18 232.997C391.422 231.984 394.061 232.981 395.074 235.223C410.397 269.139 412.509 303.322 396.622 330.839C378.705 361.874 342.043 377.305 298.523 378.159C254.904 379.014 203.568 365.313 154.693 337.095C108.5 310.426 72.4504 275.377 50.8475 239.374C49.5816 237.264 50.2656 234.527 52.3754 233.261C54.4852 231.995 57.2218 232.68 58.4877 234.789C79.2041 269.315 114.071 303.354 159.148 329.379C206.856 356.923 256.608 370.069 298.348 369.25C340.186 368.43 373.154 353.667 388.906 326.384C402.88 302.181 401.554 271.207 386.954 238.892C385.941 236.649 386.937 234.011 389.18 232.997Z" fill="#FFB514"/>
	<path d="M255.512 312.956V321.815C255.512 323.12 255.743 323.351 257.027 323.351H257.49V324.403H250.504V323.351H250.966C251.619 323.351 251.998 323.246 252.229 323.035C252.44 322.825 252.482 322.614 252.482 321.815V312.956C252.482 312.156 252.44 311.946 252.229 311.735C251.998 311.525 251.64 311.42 250.966 311.42H250.504V310.367H257.49V311.42H257.027C256.354 311.42 255.996 311.504 255.764 311.735C255.554 311.946 255.512 312.156 255.512 312.956ZM272.565 324.403H270.103L262.548 313.166V321.815C262.548 322.614 262.59 322.825 262.801 323.035C263.032 323.246 263.411 323.351 264.063 323.351H264.526V324.403H258.95V323.351H259.392C260.676 323.351 260.907 323.12 260.907 321.815V312.956C260.907 312.156 260.865 311.946 260.654 311.735C260.423 311.504 260.065 311.42 259.392 311.42H258.95V310.367H264.169L270.923 320.405V312.956C270.923 312.156 270.881 311.946 270.671 311.735C270.439 311.504 270.082 311.42 269.408 311.42H268.882V310.367H274.48V311.42H274.08C272.796 311.42 272.565 311.651 272.565 312.956V324.403ZM290.74 310.367V311.42C289.793 311.462 289.436 311.609 289.015 312.156C288.868 312.367 288.678 312.766 288.152 313.924C287.268 315.839 287.205 315.986 286.805 316.954L283.754 324.403H282.008L277.189 313.313C276.599 311.904 276.284 311.651 274.958 311.42V310.367H281.524V311.42C280.429 311.441 280.114 311.588 280.114 312.114C280.114 312.346 280.198 312.598 280.492 313.313L283.607 320.721L286.658 313.313C286.89 312.766 286.974 312.43 286.974 312.135C286.974 311.588 286.553 311.42 285.122 311.42V310.367H290.74ZM302.552 310.367L302.741 314.008H301.71C301.647 313.356 301.521 312.914 301.289 312.472C300.847 311.693 300.321 311.42 299.248 311.42H296.386V316.302H297.67C298.659 316.302 299.08 315.733 299.101 314.45H300.216V319.563H299.101V319.29C299.101 317.964 298.617 317.48 297.249 317.48H296.386V321.689C296.407 322.804 296.407 322.804 296.618 323.056C296.849 323.33 296.954 323.351 298.049 323.351H299.711C301.079 323.351 301.647 322.993 302.215 321.857C302.468 321.31 302.594 320.889 302.741 320.005H303.73L303.478 324.403H291.336V323.351H291.799C292.451 323.351 292.83 323.246 293.062 323.035C293.272 322.825 293.314 322.614 293.314 321.815V312.956C293.314 312.156 293.272 311.946 293.062 311.735C292.83 311.504 292.472 311.42 291.799 311.42H291.336V310.367H302.552ZM318.781 324.403H316.319L308.765 313.166V321.815C308.765 322.614 308.807 322.825 309.017 323.035C309.249 323.246 309.628 323.351 310.28 323.351H310.743V324.403H305.167V323.351H305.608C306.892 323.351 307.124 323.12 307.124 321.815V312.956C307.124 312.156 307.081 311.946 306.871 311.735C306.64 311.504 306.282 311.42 305.608 311.42H305.167V310.367H310.385L317.14 320.405V312.956C317.14 312.156 317.098 311.946 316.887 311.735C316.656 311.504 316.298 311.42 315.625 311.42H315.099V310.367H320.696V311.42H320.296C319.013 311.42 318.781 311.651 318.781 312.956V324.403ZM334.768 310.367L335.021 314.744H333.948C333.8 312.598 332.706 311.42 330.833 311.42H329.971V321.815C329.971 323.12 330.202 323.351 331.486 323.351H331.97V324.403H324.878V323.351H325.425C326.078 323.351 326.456 323.246 326.688 323.035C326.898 322.825 326.94 322.614 326.94 321.815V311.42H326.162C324.794 311.42 323.994 311.819 323.51 312.745C323.195 313.335 323.005 313.987 322.942 314.744H321.89L322.164 310.367H334.768ZM344.172 309.841C348.464 309.841 351.684 312.998 351.684 317.206C351.684 321.689 348.422 324.929 343.94 324.929C339.5 324.929 336.259 321.794 336.259 317.48C336.259 315.376 336.954 313.587 338.322 312.198C339.921 310.599 341.773 309.841 344.172 309.841ZM343.919 311.104C341.141 311.104 339.563 313.335 339.563 317.249C339.563 321.394 341.12 323.625 343.982 323.625C345.413 323.625 346.591 323.056 347.265 322.067C347.917 321.099 348.38 319.121 348.38 317.227C348.38 315.144 347.833 313.229 346.97 312.282C346.276 311.525 345.182 311.104 343.919 311.104ZM353.108 310.367H361.441C363.713 310.367 365.102 311.693 365.102 313.882C365.102 315.27 364.492 316.407 363.377 317.101C362.787 317.438 362.219 317.585 360.999 317.669C363.145 317.985 363.461 318.259 365.755 321.752C366.723 323.246 366.954 323.435 367.775 323.435H367.943V324.403H364.155C363.187 323.456 363.145 323.393 361.756 321.099C360.241 318.595 359.652 318.027 358.6 318.027C358.474 318.027 358.368 318.027 358.158 318.048V321.815C358.158 322.614 358.2 322.825 358.411 323.035C358.642 323.246 359.021 323.351 359.673 323.351H360.115V324.403H353.108V323.351H353.613C354.896 323.351 355.128 323.12 355.128 321.815V312.956C355.128 311.651 354.896 311.42 353.613 311.42H353.108V310.367ZM358.158 316.933H359.273C361.188 316.933 362.072 316.049 362.072 314.113C362.072 312.956 361.714 312.135 361.02 311.714C360.599 311.483 360.325 311.42 359.484 311.42H358.158V316.933ZM381.026 310.367V311.42C379.511 311.588 379.006 311.883 378.416 312.914L375.239 318.195V321.815C375.239 323.12 375.47 323.351 376.733 323.351H377.196V324.403H370.189V323.351H370.673C371.325 323.351 371.704 323.246 371.935 323.035C372.146 322.825 372.188 322.614 372.188 321.815V318.343L368.673 312.914C367.748 311.483 367.663 311.441 366.569 311.42V310.367H373.135V311.42H372.966H372.545C372.061 311.441 371.809 311.63 371.809 311.967C371.809 312.198 371.914 312.451 372.335 313.145L374.397 316.575L376.586 312.914C376.964 312.303 376.985 312.24 376.985 312.03C376.985 311.756 376.712 311.525 376.291 311.483C376.081 311.441 376.081 311.441 375.428 311.42H375.239V310.367H381.026Z" fill="white"/>
	<path d="M199.081 246.787V258.844H196.47C195.414 255.053 194.792 253.872 193.238 252.505C191.25 250.703 188.577 249.77 185.594 249.77C181.865 249.77 179.379 251.697 179.379 254.618C179.379 257.539 181.616 259.528 188.95 262.946C192.99 264.811 194.109 265.432 195.911 266.8C199.391 269.348 201.131 272.766 201.131 276.992C201.131 284.885 195.165 290.417 186.713 290.417C182.3 290.417 180.063 289.546 175.526 286.004L174.345 289.049H171.362L171.921 275.252H174.345C175.153 278.484 175.774 279.851 177.204 281.591C179.69 284.699 182.673 286.19 186.34 286.19C190.752 286.19 193.86 283.456 193.86 279.54C193.86 276.992 192.617 275.314 189.385 273.45C187.894 272.579 187.21 272.269 181.243 269.41C174.842 266.427 172.107 262.884 172.107 257.663C172.107 250.703 177.514 245.855 185.221 245.855C188.95 245.855 192.679 247.098 195.414 249.211L196.47 246.787H199.081ZM243.248 247.409L243.994 260.336H240.825C240.39 253.997 237.158 250.516 231.626 250.516H229.078V281.218C229.078 285.072 229.762 285.755 233.553 285.755H234.982V288.863H214.038V285.755H215.654C217.58 285.755 218.699 285.445 219.383 284.823C220.004 284.202 220.129 283.58 220.129 281.218V250.516H217.829C213.789 250.516 211.428 251.697 209.998 254.432C209.066 256.172 208.506 258.098 208.32 260.336H205.213L206.02 247.409H243.248ZM271.642 245.855C284.32 245.855 293.829 255.177 293.829 267.607C293.829 280.845 284.196 290.417 270.958 290.417C257.844 290.417 248.273 281.156 248.273 268.415C248.273 262.2 250.324 256.918 254.364 252.816C259.087 248.092 264.557 245.855 271.642 245.855ZM270.896 249.584C262.692 249.584 258.031 256.172 258.031 267.732C258.031 279.975 262.63 286.563 271.082 286.563C275.309 286.563 278.789 284.885 280.778 281.964C282.705 279.105 284.072 273.263 284.072 267.67C284.072 261.517 282.456 255.861 279.908 253.064C277.857 250.827 274.625 249.584 270.896 249.584ZM298.656 247.409H323.268C329.98 247.409 334.082 251.324 334.082 257.788C334.082 261.89 332.279 265.246 328.986 267.297C327.245 268.291 325.567 268.726 321.963 268.975C328.302 269.907 329.234 270.715 336.008 281.032C338.867 285.445 339.551 286.004 341.975 286.004H342.472V288.863H331.285C328.426 286.066 328.302 285.88 324.2 279.105C319.725 271.709 317.985 270.031 314.877 270.031C314.505 270.031 314.194 270.031 313.572 270.093V281.218C313.572 283.58 313.697 284.202 314.318 284.823C315.002 285.445 316.12 285.755 318.047 285.755H319.352V288.863H298.656V285.755H300.148C303.939 285.755 304.623 285.072 304.623 281.218V255.053C304.623 251.2 303.939 250.516 300.148 250.516H298.656V247.409ZM313.572 266.8H316.866C322.522 266.8 325.132 264.189 325.132 258.471C325.132 255.053 324.076 252.629 322.025 251.386C320.782 250.703 319.974 250.516 317.488 250.516H313.572V266.8ZM376.774 247.409L377.333 258.161H374.288C374.101 256.234 373.728 254.929 373.045 253.624C371.739 251.324 370.186 250.516 367.016 250.516H358.564V264.935H362.355C365.276 264.935 366.519 263.257 366.581 259.466H369.875V274.568H366.581V273.76C366.581 269.845 365.152 268.415 361.112 268.415H358.564V280.845C358.626 284.139 358.626 284.139 359.247 284.885C359.931 285.693 360.242 285.755 363.474 285.755H368.383C372.423 285.755 374.101 284.699 375.779 281.343C376.525 279.727 376.898 278.484 377.333 275.873H380.254L379.508 288.863H343.648V285.755H345.015C346.942 285.755 348.06 285.445 348.744 284.823C349.365 284.202 349.49 283.58 349.49 281.218V255.053C349.49 252.691 349.365 252.07 348.744 251.448C348.06 250.765 347.004 250.516 345.015 250.516H343.648V247.409H376.774Z" fill="white"/>
	<path d="M73.652 202.506V215.385C73.652 219.772 74.4304 220.55 78.7469 220.55H80.3744V224.089H56.6691V220.55H58.3674C60.561 220.55 61.8347 220.197 62.6131 219.489C63.3207 218.781 63.4622 218.074 63.4622 215.385V185.594C63.4622 182.905 63.3207 182.197 62.6131 181.49C61.8347 180.782 60.6318 180.428 58.3674 180.428H56.6691V176.89H83.9125C91.9794 176.89 96.9328 181.348 96.9328 188.566C96.9328 193.378 94.7392 197.765 91.2011 200.1C88.7244 201.728 84.8324 202.718 80.7282 202.718L74.3596 202.506H73.652ZM73.652 180.428V198.968C74.9257 199.109 75.4918 199.109 76.4117 199.109C79.8083 199.109 82.285 198.543 83.8418 197.482C85.8231 195.996 87.0261 193.095 87.0261 189.769C87.0261 186.231 85.3985 182.834 83.0634 181.49C81.7189 180.711 79.8083 180.357 76.7656 180.357C75.7749 180.357 75.0673 180.357 73.652 180.428ZM119.21 197.199H139.518V185.594C139.518 182.905 139.377 182.197 138.669 181.49C137.891 180.711 136.688 180.428 134.424 180.428H132.938V176.89H156.36V180.428H154.874C152.609 180.428 151.406 180.782 150.628 181.49C149.92 182.197 149.779 182.905 149.779 185.594V215.385C149.779 218.074 149.92 218.781 150.628 219.489C151.406 220.197 152.68 220.55 154.874 220.55H156.36V224.089H132.938V220.55H134.424C138.74 220.55 139.518 219.772 139.518 215.385V201.232H119.21V215.385C119.21 218.074 119.351 218.781 120.059 219.489C120.837 220.197 122.111 220.55 124.305 220.55H125.791V224.089H102.227V220.55H103.854C108.171 220.55 108.949 219.772 108.949 215.385V185.594C108.949 181.207 108.171 180.428 103.854 180.428H102.227V176.89H125.791V180.428H124.305C122.04 180.428 120.837 180.711 120.059 181.49C119.351 182.197 119.21 182.905 119.21 185.594V197.199ZM186.859 176.182L202.922 215.597C204.691 219.843 205.469 220.55 208.795 220.55H210.352V224.089H187.496V220.55H190.68C192.237 220.55 193.228 219.772 193.228 218.64C193.228 218.286 193.086 217.72 192.732 216.942L189.336 208.379H174.9L171.645 216.942C171.362 217.578 171.22 218.286 171.22 218.711C171.22 220.126 171.928 220.55 173.98 220.55H177.164V224.089H159.049V220.55C163.295 220.621 164.923 219.56 166.55 215.597L182.33 176.182H186.859ZM187.85 204.912L182.118 190.123L176.174 204.912H187.85ZM212.893 176.89H240.915C248.558 176.89 253.228 181.348 253.228 188.707C253.228 193.378 251.176 197.199 247.425 199.534C245.444 200.666 243.533 201.162 239.429 201.445C246.647 202.506 247.708 203.426 255.421 215.173C258.677 220.197 259.455 220.833 262.215 220.833H262.781V224.089H250.044C246.788 220.904 246.647 220.692 241.977 212.979C236.882 204.558 234.9 202.648 231.362 202.648C230.938 202.648 230.584 202.648 229.876 202.718V215.385C229.876 218.074 230.018 218.781 230.725 219.489C231.504 220.197 232.778 220.55 234.971 220.55H236.457V224.089H212.893V220.55H214.592C218.908 220.55 219.687 219.772 219.687 215.385V185.594C219.687 181.207 218.908 180.428 214.592 180.428H212.893V176.89ZM229.876 198.968H233.627C240.066 198.968 243.038 195.996 243.038 189.486C243.038 185.594 241.835 182.834 239.5 181.419C238.085 180.641 237.165 180.428 234.334 180.428H229.876V198.968ZM309.548 188.141L295.184 224.089H289.877L275.653 187.646V215.385C275.653 218.145 275.795 218.781 276.432 219.489C277.21 220.197 278.484 220.55 280.748 220.55H282.447V224.089H263.765V220.55H265.393C267.586 220.55 268.86 220.197 269.639 219.489C270.346 218.781 270.488 218.074 270.488 215.385V185.594C270.488 182.905 270.346 182.197 269.639 181.49C268.86 180.782 267.657 180.428 265.393 180.428H263.765V176.89H282.022L295.184 210.361L308.558 176.89H326.319V180.428H324.621C322.356 180.428 321.224 180.711 320.375 181.49C319.668 182.197 319.668 182.268 319.668 185.594V215.385C319.668 219.489 320.729 220.55 324.904 220.55H326.319V224.089H302.685V220.55H304.454C306.647 220.55 307.921 220.197 308.699 219.489C309.407 218.781 309.548 218.074 309.548 215.385V188.141ZM356.835 176.182L372.898 215.597C374.667 219.843 375.445 220.55 378.771 220.55H380.328V224.089H357.472V220.55H360.656C362.213 220.55 363.203 219.772 363.203 218.64C363.203 218.286 363.062 217.72 362.708 216.942L359.311 208.379H344.876L341.621 216.942C341.338 217.578 341.196 218.286 341.196 218.711C341.196 220.126 341.904 220.55 343.956 220.55H347.14V224.089H329.025V220.55C333.271 220.621 334.899 219.56 336.526 215.597L352.306 176.182H356.835ZM357.825 204.912L352.094 190.123L346.15 204.912H357.825Z" fill="white"/>
	<path d="M63.2756 165.667L61.2659 170.696H60.5234L58.5335 165.598V169.479C58.5335 169.865 58.5533 169.954 58.6424 170.053C58.7513 170.152 58.9295 170.201 59.2463 170.201H59.4839V170.696H56.8703V170.201H57.098C57.4049 170.201 57.5831 170.152 57.692 170.053C57.791 169.954 57.8108 169.855 57.8108 169.479V165.311C57.8108 164.934 57.791 164.835 57.692 164.736C57.5831 164.637 57.4148 164.588 57.098 164.588H56.8703V164.093H59.4245L61.2659 168.776L63.137 164.093H65.6219V164.588H65.3843C65.0675 164.588 64.9091 164.628 64.7903 164.736C64.6913 164.835 64.6913 164.845 64.6913 165.311V169.479C64.6913 170.053 64.8398 170.201 65.4239 170.201H65.6219V170.696H62.3153V170.201H62.5628C62.8697 170.201 63.0479 170.152 63.1568 170.053C63.2558 169.954 63.2756 169.855 63.2756 169.479V165.667ZM73.5938 166.212C74.9699 166.212 75.9006 167.122 75.9006 168.469C75.9006 169.112 75.6927 169.696 75.3263 170.102C74.9105 170.568 74.2076 170.865 73.5542 170.865C72.9107 170.865 72.2078 170.568 71.792 170.102C71.4257 169.696 71.2178 169.112 71.2178 168.479C71.2178 167.103 72.1484 166.212 73.5938 166.212ZM73.5542 166.825C72.9107 166.825 72.5939 167.38 72.5939 168.489C72.5939 169.726 72.8909 170.261 73.5839 170.261C74.2373 170.261 74.5343 169.716 74.5343 168.498C74.5343 167.36 74.2175 166.825 73.5542 166.825ZM84.6344 166.657V165.014C84.6344 164.687 84.5354 164.618 84.08 164.608H84.0008V164.123C84.5354 164.083 85.2284 163.964 85.8917 163.786V169.429C85.8917 170.102 85.9016 170.122 86.2877 170.122H86.5451V170.617L86.4263 170.627L85.7333 170.696C85.6244 170.706 85.3472 170.746 84.9017 170.825C84.8027 170.706 84.7334 170.469 84.7235 170.221C84.377 170.667 83.9612 170.865 83.3672 170.865C82.2386 170.865 81.4565 169.924 81.4565 168.558C81.4565 167.182 82.3079 166.162 83.4563 166.162C83.9216 166.162 84.2978 166.32 84.6344 166.657ZM84.6344 169.657V167.251C84.3671 167.023 84.1394 166.924 83.8523 166.924C83.2385 166.924 82.8326 167.558 82.8326 168.508C82.8326 169.429 83.2484 170.063 83.8622 170.063C84.1592 170.063 84.4364 169.914 84.6344 169.657ZM96.2629 168.498H93.2731C93.283 169.508 93.7087 170.132 94.4017 170.132C94.8967 170.132 95.3125 169.884 95.6689 169.38L96.2035 169.686C95.8471 170.399 95.0353 170.865 94.1542 170.865C92.8078 170.865 91.9267 169.944 91.9267 168.538C91.9267 167.182 92.8672 166.212 94.1938 166.212C95.4115 166.212 96.2728 167.083 96.2728 168.31C96.2728 168.35 96.2728 168.419 96.2629 168.498ZM93.2533 168.043H94.9561C94.9462 167.172 94.6987 166.776 94.1839 166.776C93.6691 166.776 93.3424 167.211 93.2533 168.043ZM103.698 167.617V169.508C103.698 170.181 103.708 170.201 104.094 170.201H104.421V170.696H101.787V170.201H102.045C102.431 170.201 102.441 170.181 102.441 169.508V167.528C102.441 167.013 102.381 166.954 101.867 166.954H101.787V166.459C102.243 166.449 102.332 166.429 103.322 166.241L103.52 166.212C103.649 166.4 103.708 166.657 103.698 167.023C104.074 166.499 104.47 166.251 104.916 166.251C105.322 166.251 105.599 166.548 105.599 166.974C105.599 167.38 105.361 167.667 105.025 167.667C104.817 167.667 104.718 167.598 104.609 167.37C104.54 167.241 104.46 167.182 104.342 167.182C104.183 167.182 104.045 167.271 103.767 167.548L103.698 167.617ZM112.961 167.429V169.508C112.961 170.191 112.97 170.201 113.357 170.201H113.456V170.696H111.02V170.201H111.297C111.683 170.201 111.693 170.181 111.693 169.508V167.578C111.683 167.192 111.683 167.192 111.604 167.093C111.515 166.984 111.406 166.954 111.169 166.954H111.02V166.459C111.862 166.4 112.406 166.32 112.812 166.212C112.881 166.33 112.941 166.578 112.961 166.855C113.475 166.39 113.852 166.212 114.347 166.212C114.921 166.212 115.356 166.469 115.525 166.905C115.624 167.152 115.634 167.241 115.634 167.964V169.508C115.634 170.181 115.643 170.201 116.03 170.201H116.287V170.696H113.901V170.201H113.98C114.366 170.201 114.376 170.181 114.376 169.508V167.875C114.376 167.548 114.337 167.36 114.238 167.251C114.149 167.142 113.951 167.063 113.802 167.063C113.564 167.063 113.267 167.192 112.961 167.429ZM133.665 163.994V165.915H133.249C133.081 165.311 132.982 165.123 132.734 164.905C132.417 164.618 131.992 164.469 131.516 164.469C130.922 164.469 130.526 164.776 130.526 165.241C130.526 165.707 130.883 166.023 132.051 166.568C132.695 166.865 132.873 166.964 133.16 167.182C133.714 167.588 133.992 168.132 133.992 168.805C133.992 170.063 133.041 170.944 131.695 170.944C130.992 170.944 130.635 170.805 129.913 170.241L129.725 170.726H129.249L129.338 168.528H129.725C129.853 169.043 129.952 169.261 130.18 169.538C130.576 170.033 131.051 170.271 131.635 170.271C132.338 170.271 132.833 169.835 132.833 169.211C132.833 168.805 132.635 168.538 132.12 168.241C131.883 168.102 131.774 168.053 130.823 167.598C129.804 167.122 129.368 166.558 129.368 165.726C129.368 164.618 130.229 163.845 131.457 163.845C132.051 163.845 132.645 164.043 133.081 164.38L133.249 163.994H133.665ZM142.053 166.212C143.429 166.212 144.36 167.122 144.36 168.469C144.36 169.112 144.152 169.696 143.786 170.102C143.37 170.568 142.667 170.865 142.013 170.865C141.37 170.865 140.667 170.568 140.251 170.102C139.885 169.696 139.677 169.112 139.677 168.479C139.677 167.103 140.608 166.212 142.053 166.212ZM142.013 166.825C141.37 166.825 141.053 167.38 141.053 168.489C141.053 169.726 141.35 170.261 142.043 170.261C142.697 170.261 142.994 169.716 142.994 168.498C142.994 167.36 142.677 166.825 142.013 166.825ZM152.668 166.35V166.924H151.777V169.508C151.777 170.181 151.787 170.201 152.173 170.201H152.519V170.696H149.866V170.201H150.124C150.51 170.201 150.52 170.181 150.52 169.508V166.924H149.866V166.35H150.52V165.726C150.52 164.657 151.232 163.925 152.272 163.925C152.985 163.925 153.45 164.271 153.45 164.786C153.45 165.132 153.212 165.39 152.905 165.39C152.628 165.39 152.44 165.212 152.44 164.954C152.44 164.925 152.44 164.895 152.45 164.865L152.46 164.707C152.46 164.568 152.321 164.459 152.153 164.459C151.876 164.459 151.777 164.687 151.777 165.35V166.35H152.668ZM159.902 164.925V166.35H161.001V166.924H159.902V169.627C159.902 169.825 159.912 169.914 159.942 169.983C159.991 170.122 160.11 170.201 160.259 170.201C160.477 170.201 160.615 170.082 160.823 169.736L161.368 169.924C161.041 170.558 160.566 170.865 159.922 170.865C159.368 170.865 158.893 170.597 158.724 170.181C158.645 169.993 158.645 169.983 158.645 168.964V166.924H158.081V166.35C158.873 166.241 159.16 165.885 159.229 164.925H159.902ZM179.196 164.093L179.404 165.816H178.899C178.622 164.786 178.414 164.588 177.602 164.588H176.375V166.964H176.781C177.434 166.964 177.622 166.776 177.692 166.083H178.177V168.429H177.692C177.692 167.706 177.434 167.449 176.711 167.449H176.375V169.479C176.375 169.855 176.395 169.954 176.494 170.053C176.603 170.152 176.781 170.201 177.088 170.201H177.305V170.696H173.999V170.201H174.236C174.543 170.201 174.722 170.152 174.83 170.053C174.929 169.954 174.949 169.855 174.949 169.479V165.311C174.949 164.934 174.929 164.835 174.83 164.736C174.722 164.628 174.553 164.588 174.236 164.588H173.999V164.093H179.196ZM186.739 166.212C188.115 166.212 189.045 167.122 189.045 168.469C189.045 169.112 188.837 169.696 188.471 170.102C188.055 170.568 187.352 170.865 186.699 170.865C186.055 170.865 185.353 170.568 184.937 170.102C184.57 169.696 184.363 169.112 184.363 168.479C184.363 167.103 185.293 166.212 186.739 166.212ZM186.699 166.825C186.055 166.825 185.739 167.38 185.739 168.489C185.739 169.726 186.036 170.261 186.729 170.261C187.382 170.261 187.679 169.716 187.679 168.498C187.679 167.36 187.362 166.825 186.699 166.825ZM196.472 167.617V169.508C196.472 170.181 196.482 170.201 196.868 170.201H197.195V170.696H194.562V170.201H194.819C195.205 170.201 195.215 170.181 195.215 169.508V167.528C195.215 167.013 195.156 166.954 194.641 166.954H194.562V166.459C195.017 166.449 195.106 166.429 196.096 166.241L196.294 166.212C196.423 166.4 196.482 166.657 196.472 167.023C196.848 166.499 197.244 166.251 197.69 166.251C198.096 166.251 198.373 166.548 198.373 166.974C198.373 167.38 198.135 167.667 197.799 167.667C197.591 167.667 197.492 167.598 197.383 167.37C197.314 167.241 197.235 167.182 197.116 167.182C196.957 167.182 196.819 167.271 196.542 167.548L196.472 167.617ZM213.548 167.677V169.479C213.548 170.092 213.657 170.201 214.261 170.201H214.489V170.696H211.172V170.201H211.41C211.717 170.201 211.895 170.152 212.004 170.053C212.103 169.954 212.123 169.855 212.123 169.479V165.311C212.123 164.934 212.103 164.835 212.004 164.736C211.895 164.637 211.727 164.588 211.41 164.588H211.172V164.093H214.984C216.112 164.093 216.805 164.717 216.805 165.726C216.805 166.4 216.499 167.013 216.004 167.34C215.657 167.568 215.113 167.706 214.538 167.706L213.647 167.677H213.548ZM213.548 164.588V167.182C213.727 167.202 213.806 167.202 213.934 167.202C214.41 167.202 214.756 167.122 214.974 166.974C215.251 166.766 215.419 166.36 215.419 165.895C215.419 165.4 215.192 164.925 214.865 164.736C214.677 164.628 214.41 164.578 213.984 164.578C213.845 164.578 213.746 164.578 213.548 164.588ZM224.248 167.617V169.508C224.248 170.181 224.258 170.201 224.644 170.201H224.971V170.696H222.338V170.201H222.595C222.981 170.201 222.991 170.181 222.991 169.508V167.528C222.991 167.013 222.932 166.954 222.417 166.954H222.338V166.459C222.793 166.449 222.882 166.429 223.872 166.241L224.07 166.212C224.199 166.4 224.258 166.657 224.248 167.023C224.625 166.499 225.021 166.251 225.466 166.251C225.872 166.251 226.149 166.548 226.149 166.974C226.149 167.38 225.912 167.667 225.575 167.667C225.367 167.667 225.268 167.598 225.159 167.37C225.09 167.241 225.011 167.182 224.892 167.182C224.734 167.182 224.595 167.271 224.318 167.548L224.248 167.617ZM233.822 166.212C235.198 166.212 236.128 167.122 236.128 168.469C236.128 169.112 235.921 169.696 235.554 170.102C235.138 170.568 234.436 170.865 233.782 170.865C233.139 170.865 232.436 170.568 232.02 170.102C231.654 169.696 231.446 169.112 231.446 168.479C231.446 167.103 232.376 166.212 233.822 166.212ZM233.782 166.825C233.139 166.825 232.822 167.38 232.822 168.489C232.822 169.726 233.119 170.261 233.812 170.261C234.465 170.261 234.762 169.716 234.762 168.498C234.762 167.36 234.445 166.825 233.782 166.825ZM245.486 166.924C245.674 167.182 245.763 167.469 245.763 167.815C245.763 168.31 245.545 168.776 245.159 169.073C244.803 169.35 244.565 169.419 243.714 169.449C243.08 169.479 242.922 169.538 242.922 169.756C242.922 169.884 243.031 169.964 243.278 170.003C243.407 170.023 243.615 170.033 244.526 170.063C245.199 170.082 245.595 170.191 245.862 170.439C246.1 170.657 246.238 171.033 246.238 171.459C246.238 172.597 245.298 173.31 243.823 173.31C242.387 173.31 241.447 172.736 241.447 171.864C241.447 171.33 241.833 170.993 242.447 170.993C242.595 170.993 242.664 171.003 242.803 171.053C242.575 171.27 242.466 171.528 242.466 171.805C242.466 172.369 242.991 172.716 243.843 172.716C244.714 172.716 245.258 172.399 245.258 171.894C245.258 171.666 245.13 171.459 244.932 171.369C244.763 171.3 244.734 171.29 243.971 171.211C243.288 171.142 242.892 171.053 242.595 170.914C242.259 170.746 242.061 170.449 242.061 170.102C242.061 169.647 242.348 169.389 242.991 169.3C242.575 169.182 242.377 169.063 242.169 168.805C241.952 168.538 241.833 168.192 241.833 167.825C241.833 166.825 242.595 166.162 243.744 166.162C244.328 166.162 244.852 166.33 245.219 166.637C245.466 166.35 245.743 166.212 246.07 166.212C246.506 166.212 246.852 166.499 246.852 166.855C246.852 167.103 246.654 167.31 246.397 167.31C246.219 167.31 246.1 167.221 245.981 167.013C245.912 166.865 245.823 166.806 245.714 166.806C245.634 166.806 245.595 166.825 245.486 166.924ZM243.803 166.687C243.308 166.687 243.07 167.063 243.07 167.825C243.07 168.558 243.298 168.885 243.793 168.885C244.298 168.885 244.526 168.558 244.526 167.815C244.526 167.033 244.298 166.687 243.803 166.687ZM254.016 167.617V169.508C254.016 170.181 254.026 170.201 254.412 170.201H254.739V170.696H252.106V170.201H252.363C252.749 170.201 252.759 170.181 252.759 169.508V167.528C252.759 167.013 252.7 166.954 252.185 166.954H252.106V166.459C252.561 166.449 252.65 166.429 253.64 166.241L253.838 166.212C253.967 166.4 254.026 166.657 254.016 167.023C254.392 166.499 254.788 166.251 255.234 166.251C255.64 166.251 255.917 166.548 255.917 166.974C255.917 167.38 255.679 167.667 255.343 167.667C255.135 167.667 255.036 167.598 254.927 167.37C254.858 167.241 254.779 167.182 254.66 167.182C254.501 167.182 254.363 167.271 254.086 167.548L254.016 167.617ZM265.628 169.508H266.094C266.084 170.36 265.599 170.865 264.807 170.865C264.312 170.865 263.955 170.667 263.777 170.28C263.322 170.667 262.837 170.865 262.352 170.865C261.698 170.865 261.263 170.379 261.263 169.647C261.263 169.132 261.49 168.726 261.906 168.489C262.124 168.36 262.154 168.35 263.124 168.112C263.342 168.063 263.549 168.003 263.777 167.924V167.37C263.777 166.974 263.579 166.766 263.183 166.766C262.926 166.766 262.748 166.865 262.668 167.053C262.619 167.152 262.619 167.172 262.569 167.449C262.53 167.687 262.342 167.825 262.055 167.825C261.728 167.825 261.47 167.617 261.47 167.35C261.47 167.053 261.728 166.677 262.084 166.469C262.401 166.271 262.837 166.162 263.282 166.162C263.817 166.162 264.351 166.34 264.668 166.627C264.955 166.885 265.025 167.112 265.025 167.825V169.657C265.025 169.974 265.094 170.073 265.302 170.073C265.51 170.073 265.599 169.934 265.628 169.508ZM263.777 168.528L263.084 168.746C262.738 168.855 262.52 169.122 262.52 169.459C262.52 169.795 262.728 170.043 263.015 170.043C263.243 170.043 263.45 169.954 263.777 169.706V168.528ZM273.101 167.508V169.508C273.101 170.181 273.111 170.201 273.497 170.201H273.606V170.696H271.171V170.201H271.448C271.834 170.201 271.844 170.181 271.844 169.508V167.578C271.834 167.192 271.834 167.192 271.755 167.093C271.666 166.984 271.557 166.954 271.319 166.954H271.171V166.459C271.923 166.4 272.616 166.301 272.963 166.212C273.022 166.33 273.081 166.568 273.101 166.845C273.576 166.4 274.012 166.212 274.507 166.212C275.121 166.212 275.477 166.4 275.735 166.845C276.447 166.32 276.715 166.212 277.22 166.212C277.804 166.212 278.269 166.469 278.437 166.885C278.536 167.103 278.546 167.251 278.546 167.914V169.508C278.546 170.191 278.556 170.201 278.942 170.201H279.19V170.696H276.814V170.201H276.893C277.279 170.201 277.289 170.181 277.289 169.508V167.914C277.289 167.449 277.279 167.409 277.15 167.261C277.041 167.132 276.873 167.063 276.685 167.063C276.388 167.063 276.14 167.172 275.843 167.419V169.508C275.843 170.181 275.853 170.201 276.239 170.201H276.329V170.696H274.101V170.201H274.19C274.576 170.201 274.586 170.181 274.586 169.508V167.914C274.586 167.499 274.566 167.419 274.448 167.271C274.329 167.142 274.151 167.073 273.943 167.073C273.646 167.073 273.408 167.202 273.101 167.508ZM286.433 167.508V169.508C286.433 170.181 286.443 170.201 286.829 170.201H286.938V170.696H284.503V170.201H284.78C285.166 170.201 285.176 170.181 285.176 169.508V167.578C285.166 167.192 285.166 167.192 285.087 167.093C284.998 166.984 284.889 166.954 284.651 166.954H284.503V166.459C285.255 166.4 285.948 166.301 286.295 166.212C286.354 166.33 286.414 166.568 286.433 166.845C286.909 166.4 287.344 166.212 287.839 166.212C288.453 166.212 288.809 166.4 289.067 166.845C289.78 166.32 290.047 166.212 290.552 166.212C291.136 166.212 291.601 166.469 291.769 166.885C291.868 167.103 291.878 167.251 291.878 167.914V169.508C291.878 170.191 291.888 170.201 292.274 170.201H292.522V170.696H290.146V170.201H290.225C290.611 170.201 290.621 170.181 290.621 169.508V167.914C290.621 167.449 290.611 167.409 290.482 167.261C290.374 167.132 290.205 167.063 290.017 167.063C289.72 167.063 289.473 167.172 289.176 167.419V169.508C289.176 170.181 289.186 170.201 289.572 170.201H289.661V170.696H287.433V170.201H287.522C287.908 170.201 287.918 170.181 287.918 169.508V167.914C287.918 167.499 287.899 167.419 287.78 167.271C287.661 167.142 287.483 167.073 287.275 167.073C286.978 167.073 286.74 167.202 286.433 167.508ZM299.766 166.212V169.508C299.766 170.181 299.775 170.201 300.162 170.201H300.429V170.696H297.845V170.201H298.112C298.498 170.201 298.508 170.181 298.508 169.508V167.439C298.508 167.033 298.389 166.944 297.845 166.944V166.459C298.518 166.4 299.013 166.34 299.766 166.212ZM299.092 164.281C299.478 164.281 299.795 164.608 299.795 164.994C299.795 165.39 299.478 165.707 299.082 165.707C298.686 165.707 298.37 165.39 298.37 164.984C298.37 164.598 298.696 164.281 299.092 164.281ZM307.694 167.429V169.508C307.694 170.191 307.703 170.201 308.09 170.201H308.189V170.696H305.753V170.201H306.03C306.416 170.201 306.426 170.181 306.426 169.508V167.578C306.416 167.192 306.416 167.192 306.337 167.093C306.248 166.984 306.139 166.954 305.902 166.954H305.753V166.459C306.595 166.4 307.139 166.32 307.545 166.212C307.614 166.33 307.674 166.578 307.694 166.855C308.208 166.39 308.585 166.212 309.08 166.212C309.654 166.212 310.089 166.469 310.258 166.905C310.357 167.152 310.367 167.241 310.367 167.964V169.508C310.367 170.181 310.376 170.201 310.763 170.201H311.02V170.696H308.634V170.201H308.713C309.099 170.201 309.109 170.181 309.109 169.508V167.875C309.109 167.548 309.07 167.36 308.971 167.251C308.882 167.142 308.684 167.063 308.535 167.063C308.297 167.063 308 167.192 307.694 167.429ZM320.191 166.924C320.379 167.182 320.468 167.469 320.468 167.815C320.468 168.31 320.25 168.776 319.864 169.073C319.508 169.35 319.27 169.419 318.419 169.449C317.785 169.479 317.627 169.538 317.627 169.756C317.627 169.884 317.735 169.964 317.983 170.003C318.112 170.023 318.32 170.033 319.23 170.063C319.904 170.082 320.3 170.191 320.567 170.439C320.804 170.657 320.943 171.033 320.943 171.459C320.943 172.597 320.003 173.31 318.527 173.31C317.092 173.31 316.151 172.736 316.151 171.864C316.151 171.33 316.538 170.993 317.151 170.993C317.3 170.993 317.369 171.003 317.508 171.053C317.28 171.27 317.171 171.528 317.171 171.805C317.171 172.369 317.696 172.716 318.547 172.716C319.418 172.716 319.963 172.399 319.963 171.894C319.963 171.666 319.834 171.459 319.636 171.369C319.468 171.3 319.438 171.29 318.676 171.211C317.993 171.142 317.597 171.053 317.3 170.914C316.963 170.746 316.765 170.449 316.765 170.102C316.765 169.647 317.052 169.389 317.696 169.3C317.28 169.182 317.082 169.063 316.874 168.805C316.656 168.538 316.538 168.192 316.538 167.825C316.538 166.825 317.3 166.162 318.448 166.162C319.032 166.162 319.557 166.33 319.923 166.637C320.171 166.35 320.448 166.212 320.775 166.212C321.21 166.212 321.557 166.499 321.557 166.855C321.557 167.103 321.359 167.31 321.101 167.31C320.923 167.31 320.804 167.221 320.686 167.013C320.616 166.865 320.527 166.806 320.418 166.806C320.339 166.806 320.3 166.825 320.191 166.924ZM318.508 166.687C318.013 166.687 317.775 167.063 317.775 167.825C317.775 168.558 318.003 168.885 318.498 168.885C319.003 168.885 319.23 168.558 319.23 167.815C319.23 167.033 319.003 166.687 318.508 166.687Z" fill="white"/>
	<path d="M137.421 86.0396C95.582 86.8601 62.6141 101.622 46.8623 128.905C40.3147 140.246 37.1403 153.017 37.0879 166.706C37.0785 169.166 35.0763 171.153 32.6159 171.144C30.1555 171.135 28.1685 169.132 28.178 166.672C28.2357 151.595 31.7438 137.271 39.146 124.45C57.0636 93.4163 93.7258 77.9848 137.246 77.1313C180.864 76.2759 232.2 89.9765 281.075 118.195C304.141 131.512 324.662 146.908 342.115 163.456C343.9 165.149 343.975 167.969 342.283 169.754C340.59 171.54 337.77 171.615 335.984 169.922C319.054 153.869 299.098 138.889 276.62 125.911C228.912 98.3664 179.161 85.2211 137.421 86.0396Z" fill="#FFB514"/>
</svg>