<?xml version="1.0" encoding="utf-8" standalone="no"?>
<!DOCTYPE svg PUBLIC "-//W3C//DTD SVG 1.1//EN" "http://www.w3.org/Graphics/SVG/1.1/DTD/svg11.dtd">
<svg width="456" height="456" viewBox="0 0 456 456" fill="none" xmlns="http://www.w3.org/2000/svg">
	<rect width="456" height="456" rx="75" fill="#0056A9"/>
	<path d="M309.205 186.826C297.693 175.91 284.14 165.739 268.891 156.935C204.214 119.593 133.504 120.98 110.958 160.032C106.287 168.122 104.049 177.194 104.013 186.826M118.768 233.964C132.938 257.579 156.683 280.712 187.242 298.355C251.92 335.697 322.629 334.31 345.175 295.258C355.174 277.94 354.022 256.124 344.003 233.948" stroke="#FFB514" stroke-width="5.96663" stroke-linecap="round" stroke-linejoin="round"/>
	<path fill-rule="evenodd" clip-rule="evenodd" d="M211.954 219.974L201.195 193.574H198.162L187.592 219.974C186.502 222.629 185.412 223.34 182.568 223.292V225.662H194.702V223.292H192.569C191.194 223.292 190.72 223.008 190.72 222.06C190.72 221.775 190.815 221.301 191.005 220.875L193.185 215.14H202.854L205.129 220.875C205.366 221.396 205.461 221.775 205.461 222.012C205.461 222.771 204.797 223.292 203.754 223.292H201.622V225.662H216.931V223.292H215.888C213.66 223.292 213.139 222.818 211.954 219.974ZM198.019 202.912L201.859 212.817H194.038L198.019 202.912Z" fill="white"/>
	<path fill-rule="evenodd" clip-rule="evenodd" d="M325.804 219.974L315.045 193.574H312.012L301.442 219.974C300.352 222.629 299.262 223.34 296.418 223.292V225.662H308.552V223.292H306.419C305.045 223.292 304.571 223.008 304.571 222.06C304.571 221.775 304.665 221.301 304.855 220.875L307.035 215.14H316.704L318.979 220.875C319.216 221.396 319.311 221.775 319.311 222.012C319.311 222.771 318.647 223.292 317.605 223.292H315.472V225.662H330.781V223.292H329.738C327.511 223.292 326.989 222.818 325.804 219.974ZM311.87 202.912L315.709 212.817H307.888L311.87 202.912Z" fill="white"/>
	<path d="M273.751 225.662L283.373 201.584V219.832C283.373 221.633 283.278 222.107 282.804 222.581C282.283 223.055 281.43 223.292 279.96 223.292H278.775V225.662H294.606V223.292H293.658C290.862 223.292 290.151 222.581 290.151 219.832V199.878C290.151 197.651 290.151 197.603 290.625 197.129C291.193 196.608 291.952 196.418 293.468 196.418H294.606V194.048H282.709L273.751 216.467L264.936 194.048H252.707V196.418H253.797C255.314 196.418 256.12 196.655 256.641 197.129C257.115 197.603 257.21 198.077 257.21 199.878V219.832C257.21 221.633 257.115 222.107 256.641 222.581C256.12 223.055 255.267 223.292 253.797 223.292H252.707V225.662H265.22V223.292H264.082C262.566 223.292 261.713 223.055 261.191 222.581C260.765 222.107 260.67 221.681 260.67 219.832V201.253L270.197 225.662H273.751Z" fill="white"/>
	<path fill-rule="evenodd" clip-rule="evenodd" d="M218.633 194.048H237.402C242.521 194.048 245.649 197.034 245.649 201.964C245.649 205.092 244.275 207.651 241.763 209.215C240.436 209.974 239.156 210.305 236.407 210.495C241.241 211.206 241.952 211.822 247.118 219.69C249.299 223.055 249.82 223.482 251.669 223.482H252.048V225.662H243.516C241.336 223.529 241.241 223.387 238.113 218.221C234.701 212.58 233.373 211.301 231.004 211.301C230.719 211.301 230.482 211.301 230.008 211.348V219.832C230.008 221.633 230.103 222.107 230.577 222.581C231.098 223.055 231.952 223.292 233.421 223.292H234.416V225.662H218.633V223.292H219.771C222.662 223.292 223.183 222.771 223.183 219.832V199.878C223.183 196.94 222.662 196.418 219.771 196.418H218.633V194.048ZM230.008 208.836H232.52C236.833 208.836 238.824 206.845 238.824 202.485C238.824 199.878 238.018 198.03 236.454 197.082C235.506 196.56 234.89 196.418 232.994 196.418H230.008V208.836Z" fill="white"/>
	<path d="M155.883 207.651H169.486V199.878C169.486 198.077 169.391 197.603 168.917 197.129C168.396 196.608 167.59 196.418 166.074 196.418H165.078V194.048H180.767V196.418H179.771C178.255 196.418 177.449 196.655 176.927 197.129C176.453 197.603 176.359 198.077 176.359 199.878V219.832C176.359 221.633 176.453 222.107 176.927 222.581C177.449 223.055 178.302 223.292 179.771 223.292H180.767V225.662H165.078V223.292H166.074C168.965 223.292 169.486 222.771 169.486 219.832V210.353H155.883V219.832C155.883 221.633 155.978 222.107 156.452 222.581C156.973 223.055 157.827 223.292 159.296 223.292H160.291V225.662H144.508V223.292H145.598C148.489 223.292 149.011 222.771 149.011 219.832V199.878C149.011 196.94 148.489 196.418 145.598 196.418H144.508V194.048H160.291V196.418H159.296C157.779 196.418 156.973 196.608 156.452 197.129C155.978 197.603 155.883 198.077 155.883 199.878V207.651Z" fill="white"/>
	<path fill-rule="evenodd" clip-rule="evenodd" d="M125.369 219.832V211.206H125.843L130.108 211.348C132.857 211.348 135.464 210.685 137.123 209.594C139.493 208.03 140.962 205.092 140.962 201.869C140.962 197.034 137.644 194.048 132.241 194.048H113.993V196.418H115.131C116.648 196.418 117.453 196.655 117.975 197.129C118.449 197.603 118.544 198.077 118.544 199.878V219.832C118.544 221.633 118.449 222.107 117.975 222.581C117.453 223.055 116.6 223.292 115.131 223.292H113.993V225.662H129.871V223.292H128.781C125.89 223.292 125.369 222.771 125.369 219.832ZM125.369 208.836V196.418C126.317 196.371 126.791 196.371 127.454 196.371C129.492 196.371 130.772 196.608 131.672 197.129C133.237 198.03 134.327 200.305 134.327 202.675C134.327 204.902 133.521 206.845 132.194 207.841C131.151 208.552 129.492 208.931 127.217 208.931C126.601 208.931 126.222 208.931 125.369 208.836Z" fill="white"/>
	<path d="M209.498 248.53V240.439H207.746L207.037 242.066C205.202 240.648 202.7 239.814 200.197 239.814C195.026 239.814 191.397 243.067 191.397 247.738C191.397 251.241 193.232 253.619 197.528 255.62C197.914 255.805 198.267 255.975 198.591 256.13C201.625 257.583 202.087 257.804 202.992 258.331C205.16 259.583 205.995 260.709 205.995 262.419C205.995 265.046 203.909 266.881 200.948 266.881C198.487 266.881 196.485 265.88 194.817 263.795C193.858 262.627 193.441 261.71 192.899 259.541H191.272L190.897 268.8H192.899L193.691 266.756C196.736 269.133 198.237 269.717 201.198 269.717C206.87 269.717 210.874 266.005 210.874 260.709C210.874 257.873 209.706 255.579 207.371 253.869C206.161 252.951 205.411 252.534 202.7 251.283C197.778 248.989 196.277 247.654 196.277 245.694C196.277 243.734 197.945 242.441 200.448 242.441C202.449 242.441 204.243 243.067 205.578 244.276C206.62 245.194 207.037 245.986 207.746 248.53H209.498Z" fill="white"/>
	<path fill-rule="evenodd" clip-rule="evenodd" d="M273.081 254.411C273.081 246.07 266.699 239.814 258.191 239.814C253.437 239.814 249.766 241.315 246.597 244.485C243.886 247.237 242.509 250.782 242.509 254.953C242.509 263.503 248.932 269.717 257.732 269.717C266.616 269.717 273.081 263.294 273.081 254.411ZM249.057 254.494C249.057 246.737 252.185 242.316 257.691 242.316C260.193 242.316 262.362 243.15 263.738 244.652C265.448 246.528 266.533 250.324 266.533 254.453C266.533 258.206 265.615 262.127 264.322 264.045C262.988 266.005 260.652 267.131 257.816 267.131C252.144 267.131 249.057 262.711 249.057 254.494Z" fill="white"/>
	<path fill-rule="evenodd" clip-rule="evenodd" d="M276.32 240.856H292.836C297.34 240.856 300.093 243.484 300.093 247.821C300.093 250.574 298.883 252.826 296.673 254.202C295.505 254.87 294.379 255.162 291.96 255.329C296.214 255.954 296.839 256.496 301.385 263.42C303.304 266.381 303.763 266.756 305.389 266.756H305.723V268.675H298.216C296.297 266.798 296.214 266.673 293.461 262.127C290.458 257.164 289.29 256.038 287.205 256.038C286.955 256.038 286.746 256.038 286.329 256.079V263.545C286.329 265.13 286.413 265.547 286.83 265.964C287.289 266.381 288.039 266.589 289.332 266.589H290.208V268.675H276.32V266.589H277.321C279.865 266.589 280.324 266.131 280.324 263.545V245.986C280.324 243.4 279.865 242.942 277.321 242.942H276.32V240.856ZM286.329 253.869H288.54C292.335 253.869 294.087 252.117 294.087 248.28C294.087 245.986 293.378 244.36 292.001 243.525C291.167 243.067 290.625 242.942 288.957 242.942H286.329V253.869Z" fill="white"/>
	<path d="M328.741 240.856L329.117 248.072H327.073C326.948 246.779 326.698 245.903 326.239 245.027C325.363 243.484 324.321 242.942 322.193 242.942H316.521V252.618H319.065C321.026 252.618 321.86 251.491 321.902 248.947H324.112V259.082H321.902V258.54C321.902 255.912 320.942 254.953 318.231 254.953H316.521V263.294C316.563 265.505 316.563 265.505 316.98 266.005C317.439 266.548 317.647 266.589 319.816 266.589H323.111C325.822 266.589 326.948 265.88 328.074 263.628C328.575 262.544 328.825 261.71 329.117 259.958H331.077L330.577 268.675H306.512V266.589H307.429C308.722 266.589 309.473 266.381 309.932 265.964C310.349 265.547 310.432 265.13 310.432 263.545V245.986C310.432 244.401 310.349 243.984 309.932 243.567C309.473 243.108 308.764 242.942 307.429 242.942H306.512V240.856H328.741Z" fill="white"/>
	<path d="M239.137 240.856L239.638 249.531H237.511C237.219 245.277 235.05 242.942 231.338 242.942H229.628V263.545C229.628 266.131 230.087 266.589 232.631 266.589H233.59V268.675H219.535V266.589H220.62C221.913 266.589 222.663 266.381 223.122 265.964C223.539 265.547 223.623 265.13 223.623 263.545V242.942H222.079C219.368 242.942 217.784 243.734 216.824 245.569C216.199 246.737 215.823 248.03 215.698 249.531H213.613L214.155 240.856H239.137Z" fill="white"/>
	<path d="M331.018 283.257V283.959C330.007 284.071 329.67 284.268 329.277 284.956L327.157 288.48V290.895C327.157 291.765 327.312 291.92 328.154 291.92H328.463V292.622H323.788V291.92H324.111C324.546 291.92 324.799 291.849 324.953 291.709C325.093 291.569 325.122 291.428 325.122 290.895V288.578L322.777 284.956C322.159 284.001 322.103 283.973 321.373 283.959V283.257H325.753V283.959H325.36C325.037 283.973 324.869 284.099 324.869 284.324C324.869 284.478 324.939 284.647 325.22 285.11L326.596 287.399L328.056 284.956C328.309 284.549 328.323 284.506 328.323 284.366C328.323 284.184 328.14 284.029 327.859 284.001C327.719 283.973 327.719 283.973 327.284 283.959H327.157V283.257H331.018Z" fill="white"/>
	<path d="M312.391 283.257H317.951C319.467 283.257 320.394 284.141 320.394 285.602C320.394 286.528 319.987 287.286 319.243 287.75C318.85 287.974 318.471 288.073 317.656 288.129C319.088 288.339 319.299 288.522 320.829 290.853C321.475 291.849 321.63 291.976 322.177 291.976H322.29V292.622H319.762C319.116 291.99 319.088 291.948 318.162 290.417C317.151 288.747 316.758 288.367 316.056 288.367C315.972 288.367 315.901 288.367 315.761 288.381V290.895C315.761 291.428 315.789 291.569 315.929 291.709C316.084 291.849 316.337 291.92 316.772 291.92H317.067V292.622H312.391V291.92H312.728C313.585 291.92 313.739 291.765 313.739 290.895V284.984C313.739 284.113 313.585 283.959 312.728 283.959H312.391V283.257ZM315.761 287.637H316.505C317.783 287.637 318.372 287.048 318.372 285.756C318.372 284.984 318.134 284.436 317.67 284.155C317.39 284.001 317.207 283.959 316.645 283.959H315.761V287.637Z" fill="white"/>
	<path d="M306.429 282.906C309.293 282.906 311.441 285.012 311.441 287.82C311.441 290.81 309.265 292.973 306.275 292.973C303.312 292.973 301.15 290.881 301.15 288.002C301.15 286.598 301.613 285.405 302.526 284.478C303.593 283.411 304.829 282.906 306.429 282.906ZM306.261 283.748C304.407 283.748 303.354 285.237 303.354 287.848C303.354 290.614 304.393 292.102 306.303 292.102C307.257 292.102 308.044 291.723 308.493 291.063C308.928 290.417 309.237 289.098 309.237 287.834C309.237 286.444 308.872 285.166 308.296 284.535C307.833 284.029 307.103 283.748 306.261 283.748Z" fill="white"/>
	<path d="M300.155 283.257L300.324 286.177H299.608C299.509 284.745 298.779 283.959 297.53 283.959H296.954V290.895C296.954 291.765 297.109 291.92 297.965 291.92H298.288V292.622H293.557V291.92H293.922C294.357 291.92 294.61 291.849 294.764 291.709C294.904 291.569 294.932 291.428 294.932 290.895V283.959H294.413C293.5 283.959 292.967 284.226 292.644 284.843C292.433 285.237 292.307 285.672 292.265 286.177H291.563L291.745 283.257H300.155Z" fill="white"/>
	<path d="M289.489 292.622H287.846L282.806 285.124V290.895C282.806 291.428 282.834 291.569 282.974 291.709C283.129 291.849 283.381 291.92 283.817 291.92H284.125V292.622H280.405V291.92H280.7C281.556 291.92 281.711 291.765 281.711 290.895V284.984C281.711 284.45 281.682 284.31 281.542 284.169C281.388 284.015 281.149 283.959 280.7 283.959H280.405V283.257H283.887L288.394 289.954V284.984C288.394 284.45 288.365 284.31 288.225 284.169C288.071 284.015 287.832 283.959 287.383 283.959H287.032V283.257H290.766V283.959H290.5C289.643 283.959 289.489 284.113 289.489 284.984V292.622Z" fill="white"/>
	<path d="M278.66 283.257L278.787 285.686H278.099C278.057 285.251 277.972 284.956 277.818 284.661C277.523 284.141 277.172 283.959 276.456 283.959H274.547V287.216H275.403C276.063 287.216 276.344 286.837 276.358 285.981H277.102V289.392H276.358V289.21C276.358 288.325 276.035 288.002 275.122 288.002H274.547V290.81C274.561 291.555 274.561 291.555 274.701 291.723C274.856 291.906 274.926 291.92 275.656 291.92H276.765C277.678 291.92 278.057 291.681 278.436 290.923C278.604 290.558 278.688 290.277 278.787 289.687H279.447L279.278 292.622H271.177V291.92H271.486C271.921 291.92 272.174 291.849 272.328 291.709C272.469 291.569 272.497 291.428 272.497 290.895V284.984C272.497 284.45 272.469 284.31 272.328 284.169C272.174 284.015 271.935 283.959 271.486 283.959H271.177V283.257H278.66Z" fill="white"/>
	<path d="M270.78 283.257V283.959C270.148 283.987 269.909 284.085 269.628 284.45C269.53 284.591 269.404 284.857 269.053 285.63C268.463 286.907 268.421 287.006 268.154 287.651L266.118 292.622H264.953L261.738 285.222C261.345 284.282 261.134 284.113 260.25 283.959V283.257H264.63V283.959C263.9 283.973 263.689 284.071 263.689 284.422C263.689 284.577 263.746 284.745 263.942 285.222L266.02 290.165L268.056 285.222C268.21 284.857 268.266 284.633 268.266 284.436C268.266 284.071 267.986 283.959 267.031 283.959V283.257H270.78Z" fill="white"/>
	<path d="M258.653 292.622H257.01L251.97 285.124V290.895C251.97 291.428 251.998 291.569 252.138 291.709C252.293 291.849 252.545 291.92 252.981 291.92H253.29V292.622H249.569V291.92H249.864C250.72 291.92 250.875 291.765 250.875 290.895V284.984C250.875 284.45 250.847 284.31 250.706 284.169C250.552 284.015 250.313 283.959 249.864 283.959H249.569V283.257H253.051L257.558 289.954V284.984C257.558 284.45 257.53 284.31 257.389 284.169C257.235 284.015 256.996 283.959 256.547 283.959H256.196V283.257H259.93V283.959H259.664C258.807 283.959 258.653 284.113 258.653 284.984V292.622Z" fill="white"/>
	<path d="M247.275 284.984V290.895C247.275 291.765 247.429 291.92 248.286 291.92H248.595V292.622H243.933V291.92H244.242C244.678 291.92 244.93 291.849 245.085 291.709C245.225 291.569 245.253 291.428 245.253 290.895V284.984C245.253 284.45 245.225 284.31 245.085 284.169C244.93 284.029 244.692 283.959 244.242 283.959H243.933V283.257H248.595V283.959H248.286C247.837 283.959 247.598 284.015 247.443 284.169C247.303 284.31 247.275 284.45 247.275 284.984Z" fill="white"/>
	<path d="M118.475 186.105L117.129 189.473H116.632L115.3 186.059V188.658C115.3 188.916 115.313 188.976 115.372 189.042C115.445 189.109 115.565 189.142 115.777 189.142H115.936V189.473H114.186V189.142H114.338C114.544 189.142 114.663 189.109 114.736 189.042C114.802 188.976 114.816 188.91 114.816 188.658V185.867C114.816 185.615 114.802 185.548 114.736 185.482C114.663 185.416 114.55 185.383 114.338 185.383H114.186V185.051H115.896L117.129 188.187L118.382 185.051H120.046V185.383H119.887C119.675 185.383 119.569 185.409 119.489 185.482C119.423 185.548 119.423 185.555 119.423 185.867V188.658C119.423 189.042 119.523 189.142 119.914 189.142H120.046V189.473H117.832V189.142H117.998C118.203 189.142 118.323 189.109 118.396 189.042C118.462 188.976 118.475 188.91 118.475 188.658V186.105Z" fill="white"/>
	<path d="M125.385 186.47C126.306 186.47 126.929 187.08 126.929 187.982C126.929 188.412 126.79 188.804 126.545 189.075C126.266 189.387 125.796 189.586 125.358 189.586C124.927 189.586 124.457 189.387 124.178 189.075C123.933 188.804 123.794 188.412 123.794 187.988C123.794 187.067 124.417 186.47 125.385 186.47ZM125.358 186.881C124.927 186.881 124.715 187.252 124.715 187.995C124.715 188.823 124.914 189.181 125.378 189.181C125.816 189.181 126.015 188.817 126.015 188.001C126.015 187.239 125.802 186.881 125.358 186.881Z" fill="white"/>
	<path d="M132.778 186.768V185.668C132.778 185.449 132.712 185.403 132.407 185.396H132.354V185.071C132.712 185.045 133.176 184.965 133.62 184.846V188.625C133.62 189.075 133.627 189.089 133.885 189.089H134.058V189.42L133.978 189.427L133.514 189.473C133.441 189.48 133.255 189.506 132.957 189.559C132.891 189.48 132.844 189.321 132.838 189.155C132.606 189.453 132.327 189.586 131.929 189.586C131.174 189.586 130.65 188.956 130.65 188.041C130.65 187.12 131.22 186.437 131.989 186.437C132.301 186.437 132.553 186.543 132.778 186.768ZM132.778 188.777V187.166C132.599 187.014 132.447 186.947 132.254 186.947C131.843 186.947 131.571 187.372 131.571 188.008C131.571 188.625 131.85 189.049 132.261 189.049C132.46 189.049 132.645 188.949 132.778 188.777Z" fill="white"/>
	<path d="M140.565 188.001H138.563C138.57 188.678 138.855 189.095 139.319 189.095C139.65 189.095 139.929 188.93 140.167 188.591L140.525 188.797C140.287 189.274 139.743 189.586 139.153 189.586C138.251 189.586 137.661 188.969 137.661 188.028C137.661 187.12 138.291 186.47 139.18 186.47C139.995 186.47 140.572 187.053 140.572 187.875C140.572 187.902 140.572 187.948 140.565 188.001ZM138.55 187.696H139.69C139.683 187.113 139.518 186.848 139.173 186.848C138.828 186.848 138.609 187.14 138.55 187.696Z" fill="white"/>
	<path d="M145.544 187.411V188.678C145.544 189.128 145.551 189.142 145.809 189.142H146.028V189.473H144.265V189.142H144.437C144.696 189.142 144.702 189.128 144.702 188.678V187.352C144.702 187.007 144.662 186.967 144.318 186.967H144.265V186.636C144.57 186.629 144.629 186.616 145.292 186.49L145.425 186.47C145.511 186.596 145.551 186.768 145.544 187.014C145.796 186.662 146.061 186.497 146.36 186.497C146.631 186.497 146.817 186.695 146.817 186.98C146.817 187.252 146.658 187.445 146.432 187.445C146.293 187.445 146.227 187.398 146.154 187.246C146.108 187.159 146.055 187.12 145.975 187.12C145.869 187.12 145.776 187.179 145.591 187.365L145.544 187.411Z" fill="white"/>
	<path d="M151.747 187.285V188.678C151.747 189.135 151.753 189.142 152.012 189.142H152.078V189.473H150.447V189.142H150.633C150.892 189.142 150.898 189.128 150.898 188.678V187.385C150.892 187.126 150.892 187.126 150.838 187.06C150.779 186.987 150.706 186.967 150.547 186.967H150.447V186.636C151.011 186.596 151.375 186.543 151.647 186.47C151.694 186.55 151.733 186.715 151.747 186.901C152.091 186.589 152.343 186.47 152.675 186.47C153.059 186.47 153.351 186.642 153.464 186.934C153.53 187.1 153.537 187.159 153.537 187.643V188.678C153.537 189.128 153.543 189.142 153.802 189.142H153.974V189.473H152.377V189.142H152.43C152.688 189.142 152.695 189.128 152.695 188.678V187.584C152.695 187.365 152.668 187.239 152.602 187.166C152.542 187.093 152.41 187.04 152.31 187.04C152.151 187.04 151.952 187.126 151.747 187.285Z" fill="white"/>
	<path d="M165.611 184.985V186.271H165.333C165.22 185.867 165.154 185.741 164.988 185.595C164.776 185.403 164.491 185.303 164.173 185.303C163.775 185.303 163.51 185.509 163.51 185.82C163.51 186.132 163.749 186.344 164.531 186.709C164.962 186.908 165.081 186.974 165.273 187.12C165.645 187.391 165.83 187.756 165.83 188.207C165.83 189.049 165.194 189.639 164.292 189.639C163.821 189.639 163.583 189.546 163.099 189.168L162.973 189.493H162.655L162.714 188.021H162.973C163.059 188.366 163.125 188.512 163.278 188.698C163.543 189.029 163.861 189.188 164.252 189.188C164.723 189.188 165.055 188.896 165.055 188.479C165.055 188.207 164.922 188.028 164.577 187.829C164.418 187.736 164.345 187.703 163.709 187.398C163.026 187.08 162.734 186.702 162.734 186.145C162.734 185.403 163.311 184.886 164.133 184.886C164.531 184.886 164.929 185.018 165.22 185.244L165.333 184.985H165.611Z" fill="white"/>
	<path d="M171.229 186.47C172.15 186.47 172.773 187.08 172.773 187.982C172.773 188.412 172.634 188.804 172.389 189.075C172.11 189.387 171.64 189.586 171.202 189.586C170.771 189.586 170.3 189.387 170.022 189.075C169.777 188.804 169.638 188.412 169.638 187.988C169.638 187.067 170.261 186.47 171.229 186.47ZM171.202 186.881C170.771 186.881 170.559 187.252 170.559 187.995C170.559 188.823 170.758 189.181 171.222 189.181C171.66 189.181 171.858 188.817 171.858 188.001C171.858 187.239 171.646 186.881 171.202 186.881Z" fill="white"/>
	<path d="M178.337 186.563V186.947H177.74V188.678C177.74 189.128 177.747 189.142 178.005 189.142H178.237V189.473H176.461V189.142H176.633C176.892 189.142 176.898 189.128 176.898 188.678V186.947H176.461V186.563H176.898V186.145C176.898 185.429 177.376 184.939 178.072 184.939C178.549 184.939 178.861 185.171 178.861 185.515C178.861 185.747 178.702 185.92 178.496 185.92C178.31 185.92 178.184 185.8 178.184 185.628C178.184 185.608 178.184 185.588 178.191 185.568L178.198 185.462C178.198 185.369 178.105 185.297 177.992 185.297C177.807 185.297 177.74 185.449 177.74 185.893V186.563H178.337Z" fill="white"/>
	<path d="M183.181 185.608V186.563H183.917V186.947H183.181V188.757C183.181 188.89 183.188 188.949 183.208 188.996C183.241 189.089 183.321 189.142 183.42 189.142C183.566 189.142 183.659 189.062 183.798 188.83L184.163 188.956C183.944 189.38 183.626 189.586 183.195 189.586C182.823 189.586 182.505 189.407 182.393 189.128C182.339 189.002 182.339 188.996 182.339 188.313V186.947H181.962V186.563C182.492 186.49 182.684 186.251 182.731 185.608H183.181Z" fill="white"/>
	<path d="M196.102 185.051L196.241 186.205H195.903C195.717 185.515 195.578 185.383 195.034 185.383H194.212V186.974H194.484C194.922 186.974 195.048 186.848 195.094 186.384H195.419V187.955H195.094C195.094 187.471 194.922 187.299 194.438 187.299H194.212V188.658C194.212 188.91 194.226 188.976 194.292 189.042C194.365 189.109 194.484 189.142 194.69 189.142H194.836V189.473H192.621V189.142H192.78C192.986 189.142 193.105 189.109 193.178 189.042C193.244 188.976 193.258 188.91 193.258 188.658V185.867C193.258 185.615 193.244 185.548 193.178 185.482C193.105 185.409 192.993 185.383 192.78 185.383H192.621V185.051H196.102Z" fill="white"/>
	<path d="M201.152 186.47C202.074 186.47 202.697 187.08 202.697 187.982C202.697 188.412 202.558 188.804 202.313 189.075C202.034 189.387 201.563 189.586 201.126 189.586C200.695 189.586 200.224 189.387 199.946 189.075C199.701 188.804 199.561 188.412 199.561 187.988C199.561 187.067 200.184 186.47 201.152 186.47ZM201.126 186.881C200.695 186.881 200.483 187.252 200.483 187.995C200.483 188.823 200.682 189.181 201.146 189.181C201.583 189.181 201.782 188.817 201.782 188.001C201.782 187.239 201.57 186.881 201.126 186.881Z" fill="white"/>
	<path d="M207.671 187.411V188.678C207.671 189.128 207.677 189.142 207.936 189.142H208.155V189.473H206.391V189.142H206.563C206.822 189.142 206.829 189.128 206.829 188.678V187.352C206.829 187.007 206.789 186.967 206.444 186.967H206.391V186.636C206.696 186.629 206.756 186.616 207.419 186.49L207.551 186.47C207.637 186.596 207.677 186.768 207.671 187.014C207.923 186.662 208.188 186.497 208.486 186.497C208.758 186.497 208.944 186.695 208.944 186.98C208.944 187.252 208.784 187.445 208.559 187.445C208.42 187.445 208.353 187.398 208.281 187.246C208.234 187.159 208.181 187.12 208.102 187.12C207.995 187.12 207.903 187.179 207.717 187.365L207.671 187.411Z" fill="white"/>
	<path d="M219.106 187.451V188.658C219.106 189.069 219.179 189.142 219.583 189.142H219.735V189.473H217.515V189.142H217.674C217.879 189.142 217.999 189.109 218.071 189.042C218.138 188.976 218.151 188.91 218.151 188.658V185.867C218.151 185.615 218.138 185.548 218.071 185.482C217.999 185.416 217.886 185.383 217.674 185.383H217.515V185.051H220.067C220.823 185.051 221.287 185.469 221.287 186.145C221.287 186.596 221.081 187.007 220.75 187.226C220.518 187.378 220.153 187.471 219.769 187.471L219.172 187.451H219.106ZM219.106 185.383V187.12C219.225 187.133 219.278 187.133 219.364 187.133C219.682 187.133 219.914 187.08 220.06 186.98C220.246 186.841 220.359 186.569 220.359 186.258C220.359 185.926 220.206 185.608 219.987 185.482C219.861 185.409 219.682 185.376 219.397 185.376C219.305 185.376 219.238 185.376 219.106 185.383Z" fill="white"/>
	<path d="M226.271 187.411V188.678C226.271 189.128 226.278 189.142 226.536 189.142H226.755V189.473H224.992V189.142H225.164C225.422 189.142 225.429 189.128 225.429 188.678V187.352C225.429 187.007 225.389 186.967 225.045 186.967H224.992V186.636C225.296 186.629 225.356 186.616 226.019 186.49L226.152 186.47C226.238 186.596 226.278 186.768 226.271 187.014C226.523 186.662 226.788 186.497 227.086 186.497C227.358 186.497 227.544 186.695 227.544 186.98C227.544 187.252 227.385 187.445 227.159 187.445C227.02 187.445 226.954 187.398 226.881 187.246C226.835 187.159 226.782 187.12 226.702 187.12C226.596 187.12 226.503 187.179 226.317 187.365L226.271 187.411Z" fill="white"/>
	<path d="M232.682 186.47C233.603 186.47 234.226 187.08 234.226 187.982C234.226 188.412 234.087 188.804 233.842 189.075C233.564 189.387 233.093 189.586 232.655 189.586C232.224 189.586 231.754 189.387 231.475 189.075C231.23 188.804 231.091 188.412 231.091 187.988C231.091 187.067 231.714 186.47 232.682 186.47ZM232.655 186.881C232.224 186.881 232.012 187.252 232.012 187.995C232.012 188.823 232.211 189.181 232.675 189.181C233.113 189.181 233.312 188.817 233.312 188.001C233.312 187.239 233.099 186.881 232.655 186.881Z" fill="white"/>
	<path d="M240.493 186.947C240.619 187.12 240.678 187.312 240.678 187.544C240.678 187.875 240.533 188.187 240.274 188.386C240.035 188.572 239.876 188.618 239.306 188.638C238.882 188.658 238.776 188.698 238.776 188.843C238.776 188.93 238.849 188.983 239.014 189.009C239.101 189.022 239.24 189.029 239.85 189.049C240.301 189.062 240.566 189.135 240.745 189.301C240.904 189.447 240.997 189.699 240.997 189.984C240.997 190.746 240.367 191.223 239.379 191.223C238.418 191.223 237.788 190.839 237.788 190.255C237.788 189.897 238.046 189.672 238.458 189.672C238.557 189.672 238.603 189.679 238.696 189.712C238.544 189.858 238.471 190.03 238.471 190.216C238.471 190.594 238.822 190.826 239.392 190.826C239.976 190.826 240.34 190.613 240.34 190.275C240.34 190.123 240.254 189.984 240.122 189.924C240.009 189.878 239.989 189.871 239.478 189.818C239.021 189.772 238.756 189.712 238.557 189.619C238.332 189.506 238.199 189.307 238.199 189.075C238.199 188.77 238.391 188.598 238.822 188.538C238.544 188.459 238.411 188.379 238.272 188.207C238.126 188.028 238.046 187.796 238.046 187.551C238.046 186.881 238.557 186.437 239.326 186.437C239.717 186.437 240.069 186.55 240.314 186.755C240.48 186.563 240.665 186.47 240.884 186.47C241.176 186.47 241.408 186.662 241.408 186.901C241.408 187.067 241.275 187.206 241.103 187.206C240.983 187.206 240.904 187.146 240.824 187.007C240.778 186.908 240.718 186.868 240.645 186.868C240.592 186.868 240.566 186.881 240.493 186.947ZM239.366 186.788C239.034 186.788 238.875 187.04 238.875 187.551C238.875 188.041 239.028 188.26 239.359 188.26C239.697 188.26 239.85 188.041 239.85 187.544C239.85 187.02 239.697 186.788 239.366 186.788Z" fill="white"/>
	<path d="M246.205 187.411V188.678C246.205 189.128 246.212 189.142 246.47 189.142H246.689V189.473H244.926V189.142H245.098C245.357 189.142 245.363 189.128 245.363 188.678V187.352C245.363 187.007 245.323 186.967 244.979 186.967H244.926V186.636C245.231 186.629 245.29 186.616 245.953 186.49L246.086 186.47C246.172 186.596 246.212 186.768 246.205 187.014C246.457 186.662 246.722 186.497 247.021 186.497C247.292 186.497 247.478 186.695 247.478 186.98C247.478 187.252 247.319 187.445 247.093 187.445C246.954 187.445 246.888 187.398 246.815 187.246C246.769 187.159 246.716 187.12 246.636 187.12C246.53 187.12 246.437 187.179 246.252 187.365L246.205 187.411Z" fill="white"/>
	<path d="M253.981 188.678H254.293C254.286 189.248 253.961 189.586 253.431 189.586C253.1 189.586 252.861 189.453 252.742 189.195C252.437 189.453 252.112 189.586 251.787 189.586C251.349 189.586 251.058 189.261 251.058 188.77C251.058 188.426 251.21 188.154 251.489 187.995C251.634 187.909 251.654 187.902 252.304 187.743C252.45 187.71 252.589 187.67 252.742 187.617V187.246C252.742 186.98 252.609 186.841 252.344 186.841C252.171 186.841 252.052 186.908 251.999 187.033C251.966 187.1 251.966 187.113 251.933 187.299C251.906 187.458 251.78 187.551 251.588 187.551C251.369 187.551 251.197 187.411 251.197 187.232C251.197 187.033 251.369 186.782 251.608 186.642C251.82 186.51 252.112 186.437 252.41 186.437C252.768 186.437 253.126 186.556 253.338 186.748C253.53 186.921 253.577 187.073 253.577 187.551V188.777C253.577 188.989 253.623 189.056 253.762 189.056C253.902 189.056 253.961 188.963 253.981 188.678ZM252.742 188.021L252.277 188.167C252.045 188.24 251.9 188.419 251.9 188.644C251.9 188.87 252.039 189.036 252.231 189.036C252.384 189.036 252.523 188.976 252.742 188.81V188.021Z" fill="white"/>
	<path d="M258.985 187.338V188.678C258.985 189.128 258.992 189.142 259.251 189.142H259.323V189.473H257.693V189.142H257.878C258.137 189.142 258.143 189.128 258.143 188.678V187.385C258.137 187.126 258.137 187.126 258.084 187.06C258.024 186.987 257.951 186.967 257.792 186.967H257.693V186.636C258.196 186.596 258.661 186.53 258.893 186.47C258.932 186.55 258.972 186.709 258.985 186.894C259.304 186.596 259.595 186.47 259.927 186.47C260.338 186.47 260.576 186.596 260.749 186.894C261.226 186.543 261.405 186.47 261.743 186.47C262.134 186.47 262.446 186.642 262.559 186.921C262.625 187.067 262.632 187.166 262.632 187.61V188.678C262.632 189.135 262.638 189.142 262.897 189.142H263.063V189.473H261.471V189.142H261.524C261.783 189.142 261.79 189.128 261.79 188.678V187.61C261.79 187.299 261.783 187.272 261.697 187.173C261.624 187.087 261.511 187.04 261.385 187.04C261.186 187.04 261.021 187.113 260.822 187.279V188.678C260.822 189.128 260.828 189.142 261.087 189.142H261.147V189.473H259.655V189.142H259.715C259.973 189.142 259.98 189.128 259.98 188.678V187.61C259.98 187.332 259.967 187.279 259.887 187.179C259.807 187.093 259.688 187.047 259.549 187.047C259.35 187.047 259.191 187.133 258.985 187.338Z" fill="white"/>
	<path d="M267.913 187.338V188.678C267.913 189.128 267.92 189.142 268.178 189.142H268.251V189.473H266.621V189.142H266.806C267.065 189.142 267.071 189.128 267.071 188.678V187.385C267.065 187.126 267.065 187.126 267.012 187.06C266.952 186.987 266.879 186.967 266.72 186.967H266.621V186.636C267.124 186.596 267.588 186.53 267.82 186.47C267.86 186.55 267.9 186.709 267.913 186.894C268.232 186.596 268.523 186.47 268.855 186.47C269.266 186.47 269.504 186.596 269.677 186.894C270.154 186.543 270.333 186.47 270.671 186.47C271.062 186.47 271.374 186.642 271.487 186.921C271.553 187.067 271.56 187.166 271.56 187.61V188.678C271.56 189.135 271.566 189.142 271.825 189.142H271.99V189.473H270.399V189.142H270.452C270.711 189.142 270.718 189.128 270.718 188.678V187.61C270.718 187.299 270.711 187.272 270.625 187.173C270.552 187.087 270.439 187.04 270.313 187.04C270.114 187.04 269.949 187.113 269.75 187.279V188.678C269.75 189.128 269.756 189.142 270.015 189.142H270.075V189.473H268.583V189.142H268.643C268.901 189.142 268.908 189.128 268.908 188.678V187.61C268.908 187.332 268.894 187.279 268.815 187.179C268.735 187.093 268.616 187.047 268.477 187.047C268.278 187.047 268.119 187.133 267.913 187.338Z" fill="white"/>
	<path d="M276.841 186.47V188.678C276.841 189.128 276.848 189.142 277.106 189.142H277.285V189.473H275.555V189.142H275.734C275.993 189.142 275.999 189.128 275.999 188.678V187.292C275.999 187.02 275.92 186.961 275.555 186.961V186.636C276.006 186.596 276.337 186.556 276.841 186.47ZM276.39 185.177C276.649 185.177 276.861 185.396 276.861 185.655C276.861 185.92 276.649 186.132 276.384 186.132C276.119 186.132 275.906 185.92 275.906 185.648C275.906 185.389 276.125 185.177 276.39 185.177Z" fill="white"/>
	<path d="M282.15 187.285V188.678C282.15 189.135 282.157 189.142 282.415 189.142H282.482V189.473H280.851V189.142H281.036C281.295 189.142 281.302 189.128 281.302 188.678V187.385C281.295 187.126 281.295 187.126 281.242 187.06C281.182 186.987 281.109 186.967 280.95 186.967H280.851V186.636C281.414 186.596 281.779 186.543 282.051 186.47C282.097 186.55 282.137 186.715 282.15 186.901C282.495 186.589 282.747 186.47 283.078 186.47C283.463 186.47 283.755 186.642 283.867 186.934C283.934 187.1 283.94 187.159 283.94 187.643V188.678C283.94 189.128 283.947 189.142 284.205 189.142H284.378V189.473H282.78V189.142H282.833C283.092 189.142 283.098 189.128 283.098 188.678V187.584C283.098 187.365 283.072 187.239 283.005 187.166C282.946 187.093 282.813 187.04 282.714 187.04C282.555 187.04 282.356 187.126 282.15 187.285Z" fill="white"/>
	<path d="M290.519 186.947C290.645 187.12 290.705 187.312 290.705 187.544C290.705 187.875 290.559 188.187 290.3 188.386C290.062 188.572 289.902 188.618 289.332 188.638C288.908 188.658 288.802 188.698 288.802 188.843C288.802 188.93 288.875 188.983 289.041 189.009C289.127 189.022 289.266 189.029 289.876 189.049C290.327 189.062 290.592 189.135 290.771 189.301C290.93 189.447 291.023 189.699 291.023 189.984C291.023 190.746 290.393 191.223 289.405 191.223C288.444 191.223 287.814 190.839 287.814 190.255C287.814 189.897 288.073 189.672 288.484 189.672C288.583 189.672 288.63 189.679 288.722 189.712C288.57 189.858 288.497 190.03 288.497 190.216C288.497 190.594 288.848 190.826 289.418 190.826C290.002 190.826 290.367 190.613 290.367 190.275C290.367 190.123 290.28 189.984 290.148 189.924C290.035 189.878 290.015 189.871 289.505 189.818C289.047 189.772 288.782 189.712 288.583 189.619C288.358 189.506 288.225 189.307 288.225 189.075C288.225 188.77 288.417 188.598 288.848 188.538C288.57 188.459 288.437 188.379 288.298 188.207C288.152 188.028 288.073 187.796 288.073 187.551C288.073 186.881 288.583 186.437 289.352 186.437C289.743 186.437 290.095 186.55 290.34 186.755C290.506 186.563 290.691 186.47 290.91 186.47C291.202 186.47 291.434 186.662 291.434 186.901C291.434 187.067 291.301 187.206 291.129 187.206C291.01 187.206 290.93 187.146 290.85 187.007C290.804 186.908 290.744 186.868 290.671 186.868C290.618 186.868 290.592 186.881 290.519 186.947ZM289.392 186.788C289.06 186.788 288.901 187.04 288.901 187.551C288.901 188.041 289.054 188.26 289.385 188.26C289.723 188.26 289.876 188.041 289.876 187.544C289.876 187.02 289.723 186.788 289.392 186.788Z" fill="white"/>
</svg>
