<?xml version="1.0" encoding="utf-8" standalone="no"?>
<!DOCTYPE svg PUBLIC "-//W3C//DTD SVG 1.1//EN" "http://www.w3.org/Graphics/SVG/1.1/DTD/svg11.dtd">
<svg width="456" height="456" viewBox="0 0 456 456" fill="none" xmlns="http://www.w3.org/2000/svg">
	<rect width="456" height="456" rx="75" fill="#0056A9"/>
	<path d="M111.24 211.11V224.653C111.24 229.267 112.059 230.085 116.598 230.085H118.309V233.806H93.3812V230.085H95.1671C97.4739 230.085 98.8133 229.713 99.6318 228.969C100.376 228.225 100.525 227.481 100.525 224.653V193.326C100.525 190.498 100.376 189.754 99.6318 189.01C98.8133 188.266 97.5483 187.894 95.1671 187.894H93.3812V184.173H122.03C130.513 184.173 135.722 188.861 135.722 196.451C135.722 201.511 133.415 206.125 129.694 208.58C127.09 210.292 122.997 211.333 118.681 211.333L111.984 211.11H111.24ZM111.24 187.894V207.39C112.58 207.538 113.175 207.538 114.142 207.538C117.714 207.538 120.318 206.943 121.955 205.827C124.039 204.264 125.304 201.213 125.304 197.716C125.304 193.995 123.593 190.424 121.137 189.01C119.723 188.191 117.714 187.819 114.514 187.819C113.472 187.819 112.728 187.819 111.24 187.894ZM150.739 181.866V205.529C154.608 201.809 158.106 200.097 161.901 200.097C165.621 200.097 168.896 201.809 170.384 204.562C171.277 206.348 171.426 207.092 171.426 211.557V224.876C171.426 229.936 171.5 230.085 174.402 230.085H176.262V233.806H158.403V230.085H158.924C161.826 230.085 161.901 230.011 161.901 224.876V211.706C161.901 208.431 160.264 206.422 157.659 206.422C155.501 206.422 153.12 207.39 150.739 209.399V224.876C150.739 229.936 150.813 230.085 153.715 230.085H154.534V233.806H136.452V230.085H138.387C141.289 230.085 141.363 229.936 141.363 224.876V191.986C141.363 188.34 141.065 188.117 136.452 187.819V184.099C141.586 183.727 145.53 183.131 150.739 181.866ZM209.409 224.876H212.907C212.832 231.276 209.186 235.071 203.233 235.071C199.513 235.071 196.834 233.583 195.494 230.681C192.071 233.583 188.425 235.071 184.779 235.071C179.868 235.071 176.594 231.425 176.594 225.918C176.594 222.049 178.305 218.998 181.43 217.212C183.068 216.245 183.291 216.17 190.583 214.384C192.22 214.012 193.783 213.566 195.494 212.971V208.803C195.494 205.827 194.006 204.264 191.03 204.264C189.095 204.264 187.756 205.008 187.16 206.422C186.788 207.166 186.788 207.315 186.416 209.399C186.118 211.185 184.705 212.226 182.547 212.226C180.091 212.226 178.156 210.664 178.156 208.655C178.156 206.422 180.091 203.595 182.77 202.032C185.151 200.544 188.425 199.725 191.774 199.725C195.792 199.725 199.81 201.065 202.191 203.223C204.349 205.157 204.87 206.869 204.87 212.226V225.993C204.87 228.374 205.391 229.118 206.954 229.118C208.517 229.118 209.186 228.076 209.409 224.876ZM195.494 217.51L190.286 219.147C187.681 219.965 186.044 221.974 186.044 224.504C186.044 227.034 187.607 228.895 189.765 228.895C191.476 228.895 193.039 228.225 195.494 226.365V217.51ZM225.32 210.664V224.876C225.32 229.936 225.394 230.085 228.296 230.085H230.752V233.806H210.958V230.085H212.893C215.795 230.085 215.869 229.936 215.869 224.876V209.994C215.869 206.125 215.423 205.678 211.553 205.678H210.958V201.958C214.381 201.883 215.051 201.734 222.492 200.32L223.98 200.097C224.948 201.511 225.394 203.446 225.32 206.199C228.147 202.255 231.124 200.395 234.472 200.395C237.523 200.395 239.607 202.627 239.607 205.827C239.607 208.878 237.821 211.036 235.291 211.036C233.728 211.036 232.984 210.515 232.166 208.803C231.645 207.836 231.049 207.39 230.156 207.39C228.966 207.39 227.924 208.059 225.841 210.143L225.32 210.664ZM254.682 209.845V224.876C254.682 229.936 254.757 230.085 257.659 230.085H258.477V233.806H240.172V230.085H242.255C245.158 230.085 245.232 229.936 245.232 224.876V210.366C245.158 207.464 245.158 207.464 244.562 206.72C243.893 205.901 243.074 205.678 241.288 205.678H240.172V201.958C245.827 201.511 251.036 200.767 253.64 200.097C254.087 200.99 254.533 202.776 254.682 204.86C258.254 201.511 261.528 200.097 265.249 200.097C269.862 200.097 272.541 201.511 274.476 204.86C279.834 200.916 281.843 200.097 285.638 200.097C290.028 200.097 293.525 202.032 294.79 205.157C295.535 206.794 295.609 207.91 295.609 212.896V224.876C295.609 230.011 295.683 230.085 298.585 230.085H300.446V233.806H282.587V230.085H283.182C286.084 230.085 286.159 229.936 286.159 224.876V212.896C286.159 209.399 286.084 209.101 285.117 207.985C284.298 207.018 283.033 206.497 281.619 206.497C279.387 206.497 277.527 207.315 275.294 209.175V224.876C275.294 229.936 275.369 230.085 278.271 230.085H278.941V233.806H262.198V230.085H262.868C265.77 230.085 265.844 229.936 265.844 224.876V212.896C265.844 209.771 265.695 209.175 264.802 208.059C263.909 207.092 262.57 206.571 261.007 206.571C258.775 206.571 256.989 207.538 254.682 209.845ZM333.535 224.876H337.033C336.958 231.276 333.312 235.071 327.359 235.071C323.638 235.071 320.96 233.583 319.62 230.681C316.197 233.583 312.551 235.071 308.905 235.071C303.994 235.071 300.72 231.425 300.72 225.918C300.72 222.049 302.431 218.998 305.556 217.212C307.193 216.245 307.417 216.17 314.709 214.384C316.346 214.012 317.909 213.566 319.62 212.971V208.803C319.62 205.827 318.132 204.264 315.155 204.264C313.221 204.264 311.881 205.008 311.286 206.422C310.914 207.166 310.914 207.315 310.542 209.399C310.244 211.185 308.83 212.226 306.673 212.226C304.217 212.226 302.282 210.664 302.282 208.655C302.282 206.422 304.217 203.595 306.896 202.032C309.277 200.544 312.551 199.725 315.9 199.725C319.918 199.725 323.936 201.065 326.317 203.223C328.475 205.157 328.996 206.869 328.996 212.226V225.993C328.996 228.374 329.517 229.118 331.08 229.118C332.642 229.118 333.312 228.076 333.535 224.876ZM319.62 217.51L314.411 219.147C311.807 219.965 310.17 221.974 310.17 224.504C310.17 227.034 311.733 228.895 313.89 228.895C315.602 228.895 317.165 228.225 319.62 226.365V217.51Z" fill="white"/>
	<path d="M213.268 245.439V259.875H210.143C208.878 255.336 208.134 253.922 206.274 252.285C203.892 250.127 200.693 249.011 197.121 249.011C192.656 249.011 189.68 251.318 189.68 254.815C189.68 258.312 192.358 260.694 201.139 264.786C205.976 267.019 207.315 267.763 209.473 269.4C213.64 272.451 215.724 276.543 215.724 281.603C215.724 291.054 208.58 297.676 198.46 297.676C193.177 297.676 190.498 296.635 185.066 292.393L183.652 296.039H180.08L180.75 279.52H183.652C184.62 283.389 185.364 285.026 187.075 287.11C190.052 290.831 193.623 292.616 198.014 292.616C203.297 292.616 207.018 289.342 207.018 284.654C207.018 281.603 205.529 279.594 201.66 277.362C199.874 276.32 199.056 275.948 191.912 272.525C184.248 268.953 180.973 264.712 180.973 258.461C180.973 250.127 187.447 244.323 196.674 244.323C201.139 244.323 205.604 245.811 208.878 248.341L210.143 245.439H213.268ZM230.192 252.434V263.149H238.452V267.465H230.192V287.78C230.192 289.268 230.266 289.938 230.489 290.458C230.861 291.5 231.754 292.096 232.871 292.096C234.508 292.096 235.549 291.203 237.112 288.598L241.205 290.012C238.749 294.774 235.177 297.081 230.341 297.081C226.174 297.081 222.602 295.072 221.337 291.947C220.741 290.533 220.741 290.458 220.741 282.794V267.465H216.5V263.149C222.453 262.331 224.611 259.652 225.132 252.434H230.192ZM257.865 262.107C268.208 262.107 275.203 268.953 275.203 279.073C275.203 283.91 273.64 288.301 270.887 291.351C267.762 294.849 262.479 297.081 257.567 297.081C252.731 297.081 247.447 294.849 244.322 291.351C241.569 288.301 240.006 283.91 240.006 279.148C240.006 268.805 247.001 262.107 257.865 262.107ZM257.567 266.721C252.731 266.721 250.349 270.888 250.349 279.222C250.349 288.524 252.582 292.542 257.791 292.542C262.702 292.542 264.934 288.449 264.934 279.297C264.934 270.739 262.553 266.721 257.567 266.721ZM290.845 272.674V286.887C290.845 291.947 290.919 292.096 293.821 292.096H296.277V295.816H276.483V292.096H278.418C281.32 292.096 281.394 291.947 281.394 286.887V272.004C281.394 268.135 280.948 267.688 277.078 267.688H276.483V263.968C279.906 263.893 280.576 263.745 288.017 262.331L289.505 262.107C290.473 263.521 290.919 265.456 290.845 268.209C293.672 264.265 296.649 262.405 299.997 262.405C303.048 262.405 305.132 264.637 305.132 267.837C305.132 270.888 303.346 273.046 300.816 273.046C299.253 273.046 298.509 272.525 297.691 270.814C297.17 269.846 296.574 269.4 295.681 269.4C294.491 269.4 293.449 270.07 291.366 272.153L290.845 272.674ZM337.206 279.297H314.734C314.808 286.887 318.008 291.575 323.217 291.575C326.937 291.575 330.063 289.714 332.742 285.919L336.76 288.226C334.081 293.584 327.979 297.081 321.357 297.081C311.236 297.081 304.614 290.161 304.614 279.594C304.614 269.4 311.683 262.107 321.654 262.107C330.807 262.107 337.281 268.656 337.281 277.883C337.281 278.18 337.281 278.701 337.206 279.297ZM314.585 275.874H327.384C327.309 269.325 325.449 266.349 321.58 266.349C317.71 266.349 315.255 269.623 314.585 275.874Z" fill="white"/>
	<path d="M355 276.253C340.772 399.874 164.983 357.824 112.816 242.423C191.225 360.353 330.655 376.162 355 276.253Z" fill="#FFB514"/>
	<path d="M96.691 183.933C110.919 60.3112 286.708 102.362 338.875 217.763C260.466 99.8322 121.036 84.0238 96.691 183.933Z" fill="#FFB514"/>
</svg>
