<svg width="48" height="48" viewBox="0 0 48 48" fill="none" xmlns="http://www.w3.org/2000/svg">
<path d="M6.34033 14.88L24.0003 25.1L41.5403 14.9399" stroke="#0056A9" stroke-width="1.5" stroke-linecap="round" stroke-linejoin="round"/>
<path d="M24.0005 43.22V25.08" stroke="#0056A9" stroke-width="1.5" stroke-linecap="round" stroke-linejoin="round"/>
<path d="M43.2202 25.6601V18.34C43.2202 15.58 41.2403 12.22 38.8203 10.88L28.1403 4.96C25.8603 3.68 22.1402 3.68 19.8602 4.96L9.18024 10.88C6.76024 12.22 4.78027 15.58 4.78027 18.34V29.6601C4.78027 32.4201 6.76024 35.78 9.18024 37.12L19.8602 43.0401C21.0002 43.6801 22.5002 44 24.0002 44C25.5002 44 27.0003 43.6801 28.1403 43.0401" stroke="#0056A9" stroke-width="1.5" stroke-linecap="round" stroke-linejoin="round"/>
<path d="M38.4 42.8C41.9346 42.8 44.8 39.9346 44.8 36.4C44.8 32.8654 41.9346 30 38.4 30C34.8654 30 32 32.8654 32 36.4C32 39.9346 34.8654 42.8 38.4 42.8Z" stroke="#0056A9" stroke-width="1.5" stroke-linecap="round" stroke-linejoin="round"/>
<path d="M46 44L44 42" stroke="#0056A9" stroke-width="1.5" stroke-linecap="round" stroke-linejoin="round"/>
</svg>
