<svg width="136" height="109" viewBox="0 0 136 109" fill="none" xmlns="http://www.w3.org/2000/svg">
<path d="M79.4271 39.8101C71.0471 39.8601 62.5371 39.4701 54.5771 37.2601C46.6171 35.0501 39.5771 30.8801 33.1771 26.0101C28.9871 22.8401 25.1771 20.3201 19.7371 20.7001C14.4181 20.9797 9.33047 22.9642 5.22709 26.3601C-1.69291 32.4201 -0.642905 43.6201 2.11709 51.5001C6.27709 63.3701 18.9371 71.6101 29.6871 76.9801C42.1171 83.1901 55.7671 86.8001 69.4571 88.8701C81.4571 90.6901 96.8671 92.0201 107.257 84.1801C116.807 76.9901 119.427 60.5501 117.087 49.4501C116.518 46.1716 114.772 43.2134 112.177 41.1301C105.467 36.2301 95.4671 39.5001 87.9271 39.6701C85.1771 39.7301 82.2871 39.8001 79.4271 39.8101Z" fill="#F2F2F2"/>
<path d="M38.5684 1V5.3" stroke="#FFB514" stroke-width="0.85" stroke-linecap="round" stroke-linejoin="round"/>
<path d="M36.418 3.1499H40.718" stroke="#FFB514" stroke-width="0.85" stroke-linecap="round" stroke-linejoin="round"/>
<path d="M120.146 86.71V91.01" stroke="#FFB514" stroke-width="0.85" stroke-linecap="round" stroke-linejoin="round"/>
<path d="M117.996 88.8599H122.296" stroke="#FFB514" stroke-width="0.85" stroke-linecap="round" stroke-linejoin="round"/>
<path d="M89.5171 5.43998C90.0583 5.43998 90.4971 5.00122 90.4971 4.45998C90.4971 3.91874 90.0583 3.47998 89.5171 3.47998C88.9759 3.47998 88.5371 3.91874 88.5371 4.45998C88.5371 5.00122 88.9759 5.43998 89.5171 5.43998Z" fill="#0056A9"/>
<path d="M62.3563 108.31C82.6251 108.31 99.0562 107.289 99.0562 106.03C99.0562 104.771 82.6251 103.75 62.3563 103.75C42.0874 103.75 25.6562 104.771 25.6562 106.03C25.6562 107.289 42.0874 108.31 62.3563 108.31Z" fill="#F2F2F2"/>
<path d="M34.0878 12.6802H87.3878C88.7139 12.6802 89.9857 13.207 90.9233 14.1446C91.861 15.0823 92.3878 16.3541 92.3878 17.6802V81.0902C92.3878 82.4163 91.861 83.688 90.9233 84.6257C89.9857 85.5634 88.7139 86.0902 87.3878 86.0902H27.2578C25.9317 86.0902 24.66 85.5634 23.7223 84.6257C22.7846 83.688 22.2578 82.4163 22.2578 81.0902V24.6302L34.0878 12.6802Z" fill="white" stroke="#548EC5" stroke-linecap="round" stroke-linejoin="round"/>
<path d="M92.1475 43.5801H37.1875V86.7001H92.1475V43.5801Z" fill="#D2D2D2"/>
<path d="M22.2578 24.6302H31.9478C32.5163 24.6275 33.0606 24.3998 33.4616 23.9969C33.8627 23.594 34.0878 23.0487 34.0878 22.4802V12.6802L22.2578 24.6302Z" fill="white" stroke="#8AB1D7" stroke-linecap="round" stroke-linejoin="round"/>
<path d="M91.8775 29.8101H37.5175C35.4023 29.8101 33.6875 31.5248 33.6875 33.6401V45.2701C33.6875 47.3853 35.4023 49.1001 37.5175 49.1001H91.8775C93.9927 49.1001 95.7075 47.3853 95.7075 45.2701V33.6401C95.7075 31.5248 93.9927 29.8101 91.8775 29.8101Z" fill="white" stroke="#3378BA" stroke-linecap="round" stroke-linejoin="round"/>
<path d="M44.2463 42.8201C46.0909 42.8201 47.5863 41.3248 47.5863 39.4801C47.5863 37.6355 46.0909 36.1401 44.2463 36.1401C42.4016 36.1401 40.9062 37.6355 40.9062 39.4801C40.9062 41.3248 42.4016 42.8201 44.2463 42.8201Z" fill="#B0CBE4"/>
<path d="M54.7462 42.8201C56.5909 42.8201 58.0863 41.3248 58.0863 39.4801C58.0863 37.6355 56.5909 36.1401 54.7462 36.1401C52.9016 36.1401 51.4062 37.6355 51.4062 39.4801C51.4062 41.3248 52.9016 42.8201 54.7462 42.8201Z" fill="#B0CBE4"/>
<path d="M65.2365 42.8201C67.0811 42.8201 68.5765 41.3248 68.5765 39.4801C68.5765 37.6355 67.0811 36.1401 65.2365 36.1401C63.3918 36.1401 61.8965 37.6355 61.8965 39.4801C61.8965 41.3248 63.3918 42.8201 65.2365 42.8201Z" fill="#B0CBE4"/>
<path d="M91.8775 51.1899H37.5175C35.4023 51.1899 33.6875 52.9047 33.6875 55.0199V66.6499C33.6875 68.7652 35.4023 70.4799 37.5175 70.4799H91.8775C93.9927 70.4799 95.7075 68.7652 95.7075 66.6499V55.0199C95.7075 52.9047 93.9927 51.1899 91.8775 51.1899Z" fill="white" stroke="#3378BA" stroke-linecap="round" stroke-linejoin="round"/>
<path d="M44.2463 64.2103C46.0909 64.2103 47.5863 62.7149 47.5863 60.8703C47.5863 59.0256 46.0909 57.5303 44.2463 57.5303C42.4016 57.5303 40.9062 59.0256 40.9062 60.8703C40.9062 62.7149 42.4016 64.2103 44.2463 64.2103Z" fill="#B0CBE4"/>
<path d="M54.7462 64.2103C56.5909 64.2103 58.0863 62.7149 58.0863 60.8703C58.0863 59.0256 56.5909 57.5303 54.7462 57.5303C52.9016 57.5303 51.4062 59.0256 51.4062 60.8703C51.4062 62.7149 52.9016 64.2103 54.7462 64.2103Z" fill="#B0CBE4"/>
<path d="M65.2365 64.2103C67.0811 64.2103 68.5765 62.7149 68.5765 60.8703C68.5765 59.0256 67.0811 57.5303 65.2365 57.5303C63.3918 57.5303 61.8965 59.0256 61.8965 60.8703C61.8965 62.7149 63.3918 64.2103 65.2365 64.2103Z" fill="#B0CBE4"/>
<path d="M91.8775 72.5801H37.5175C35.4023 72.5801 33.6875 74.2948 33.6875 76.4101V88.0401C33.6875 90.1553 35.4023 91.8701 37.5175 91.8701H91.8775C93.9927 91.8701 95.7075 90.1553 95.7075 88.0401V76.4101C95.7075 74.2948 93.9927 72.5801 91.8775 72.5801Z" fill="white" stroke="#3378BA" stroke-linecap="round" stroke-linejoin="round"/>
<path d="M44.2463 85.5902C46.0909 85.5902 47.5863 84.0948 47.5863 82.2502C47.5863 80.4055 46.0909 78.9102 44.2463 78.9102C42.4016 78.9102 40.9062 80.4055 40.9062 82.2502C40.9062 84.0948 42.4016 85.5902 44.2463 85.5902Z" fill="#B0CBE4"/>
<path d="M54.7462 85.5902C56.5909 85.5902 58.0863 84.0948 58.0863 82.2502C58.0863 80.4055 56.5909 78.9102 54.7462 78.9102C52.9016 78.9102 51.4062 80.4055 51.4062 82.2502C51.4062 84.0948 52.9016 85.5902 54.7462 85.5902Z" fill="#B0CBE4"/>
<path d="M65.2365 85.5902C67.0811 85.5902 68.5765 84.0948 68.5765 82.2502C68.5765 80.4055 67.0811 78.9102 65.2365 78.9102C63.3918 78.9102 61.8965 80.4055 61.8965 82.2502C61.8965 84.0948 63.3918 85.5902 65.2365 85.5902Z" fill="#B0CBE4"/>
<path d="M96.7964 54.17C108.245 54.17 117.526 44.8888 117.526 33.44C117.526 21.9911 108.245 12.71 96.7964 12.71C85.3475 12.71 76.0664 21.9911 76.0664 33.44C76.0664 44.8888 85.3475 54.17 96.7964 54.17Z" fill="white" stroke="#548EC5" stroke-linecap="round" stroke-linejoin="round"/>
<path d="M111.518 48.48L117.038 54" stroke="#3378BA" stroke-linecap="round" stroke-linejoin="round"/>
<path d="M116.42 51.3204L114.706 53.1131C113.935 53.9195 113.964 55.1982 114.771 55.9691L129.661 70.2039C130.468 70.9748 131.746 70.946 132.517 70.1396L134.231 68.3469C135.002 67.5405 134.973 66.2618 134.167 65.4909L119.276 51.2561C118.47 50.4852 117.191 50.514 116.42 51.3204Z" fill="#0056A9" stroke="#3378BA" stroke-linecap="round" stroke-linejoin="round"/>
</svg>
