<svg width="32" height="32" viewBox="0 0 32 32" fill="none" xmlns="http://www.w3.org/2000/svg">
<path d="M5 9.3335C5 9.06828 5.10536 8.81393 5.29289 8.62639C5.48043 8.43885 5.73478 8.3335 6 8.3335H26C26.2652 8.3335 26.5196 8.43885 26.7071 8.62639C26.8946 8.81393 27 9.06828 27 9.3335C27 9.59871 26.8946 9.85307 26.7071 10.0406C26.5196 10.2281 26.2652 10.3335 26 10.3335H6C5.73478 10.3335 5.48043 10.2281 5.29289 10.0406C5.10536 9.85307 5 9.59871 5 9.3335ZM8.33333 16.0002C8.33333 15.7349 8.43869 15.4806 8.62623 15.2931C8.81376 15.1055 9.06812 15.0002 9.33333 15.0002H22.6667C22.9319 15.0002 23.1862 15.1055 23.3738 15.2931C23.5613 15.4806 23.6667 15.7349 23.6667 16.0002C23.6667 16.2654 23.5613 16.5197 23.3738 16.7073C23.1862 16.8948 22.9319 17.0002 22.6667 17.0002H9.33333C9.06812 17.0002 8.81376 16.8948 8.62623 16.7073C8.43869 16.5197 8.33333 16.2654 8.33333 16.0002ZM12.3333 22.6668C12.3333 22.4016 12.4387 22.1473 12.6262 21.9597C12.8138 21.7722 13.0681 21.6668 13.3333 21.6668H18.6667C18.9319 21.6668 19.1862 21.7722 19.3738 21.9597C19.5613 22.1473 19.6667 22.4016 19.6667 22.6668C19.6667 22.932 19.5613 23.1864 19.3738 23.3739C19.1862 23.5615 18.9319 23.6668 18.6667 23.6668H13.3333C13.0681 23.6668 12.8138 23.5615 12.6262 23.3739C12.4387 23.1864 12.3333 22.932 12.3333 22.6668Z" fill="#001122"/>
</svg>
