<svg width="20" height="20" viewBox="0 0 20 20" fill="none" xmlns="http://www.w3.org/2000/svg">
<g clip-path="url(#clip0_124_3232)">
<path d="M7.41918 7.07963L11.525 11.1855M9.00584 5.49297C9.55643 4.9792 10.285 4.69933 11.038 4.71235C11.7909 4.72537 12.5094 5.03028 13.0419 5.56277C13.5744 6.09526 13.8793 6.81373 13.8923 7.56668C13.9053 8.31963 13.6254 9.04821 13.1117 9.5988L9.61168 13.0988C9.06451 13.6188 8.33642 13.9054 7.5816 13.8979C6.82679 13.8904 6.10453 13.5894 5.5678 13.0586C5.03106 12.5279 4.72201 11.809 4.70609 11.0543C4.69017 10.2996 4.96864 9.5684 5.48251 9.01547L9.00584 5.49297Z" stroke="#0056A9" stroke-width="1.5" stroke-linecap="round" stroke-linejoin="round"/>
<path d="M15.2183 15.2182L19.0691 19.069M9.30245 17.674C13.9258 17.674 17.6741 13.9257 17.6741 9.30233C17.6741 4.679 13.925 0.930664 9.30245 0.930664C4.67829 0.930664 0.930786 4.679 0.930786 9.30233C0.930786 13.9257 4.67829 17.674 9.30245 17.674Z" stroke="#0056A9" stroke-width="1.5" stroke-linecap="round" stroke-linejoin="round"/>
</g>
<defs>
<clipPath id="clip0_124_3232">
<rect width="20" height="20" fill="white"/>
</clipPath>
</defs>
</svg>
