<svg width="44" height="44" viewBox="0 0 44 44" fill="none" xmlns="http://www.w3.org/2000/svg">
<path d="M10.9504 22.3801H1V37.2072H15.8271V33.0627M15.8305 13.2948V1H1.00344V15.8271H13.2409M33.0432 15.8294H37.2083V1.00229H22.3813V10.955M5.34042 26.7205H11.5405V32.9206H5.34042V26.7205ZM5.34271 5.34271H11.544V11.544H5.34271V5.34271ZM26.7217 5.34156H32.9218V11.5428H26.7217V5.34156Z" stroke="white" stroke-width="0.5" stroke-linecap="round" stroke-linejoin="round"/>
<path d="M23.1765 35.3074C29.8769 35.3074 35.3086 29.8757 35.3086 23.1753C35.3086 16.4749 29.8769 11.0432 23.1765 11.0432C16.4762 11.0432 11.0444 16.4749 11.0444 23.1753C11.0444 29.8757 16.4762 35.3074 23.1765 35.3074Z" stroke="white" stroke-width="0.5" stroke-linecap="round" stroke-linejoin="round"/>
<path d="M31.9375 31.9375L43.3958 43.3947" stroke="white" stroke-width="0.5" stroke-linecap="round" stroke-linejoin="round"/>
</svg>
