<svg width="20" height="20" viewBox="0 0 20 20" fill="none" xmlns="http://www.w3.org/2000/svg">
<g clip-path="url(#clip0_268_11525)">
<path d="M7.42076 7.07963L11.5266 11.1855M9.00743 5.49297C9.55802 4.9792 10.2866 4.69933 11.0395 4.71235C11.7925 4.72537 12.511 5.03028 13.0435 5.56277C13.576 6.09526 13.8809 6.81373 13.8939 7.56668C13.9069 8.31963 13.627 9.04821 13.1133 9.5988L9.61326 13.0988C9.0661 13.6188 8.338 13.9054 7.58319 13.8979C6.82837 13.8904 6.10611 13.5894 5.56938 13.0586C5.03265 12.5279 4.7236 11.809 4.70768 11.0543C4.69176 10.2996 4.97022 9.5684 5.4841 9.01547L9.00743 5.49297Z" stroke="#606060" stroke-width="1.5" stroke-linecap="round" stroke-linejoin="round"/>
<path d="M15.2191 15.2182L19.07 19.069M9.30331 17.674C13.9266 17.674 17.675 13.9257 17.675 9.30233C17.675 4.679 13.9258 0.930664 9.30331 0.930664C4.67914 0.930664 0.931641 4.679 0.931641 9.30233C0.931641 13.9257 4.67914 17.674 9.30331 17.674Z" stroke="#606060" stroke-width="1.5" stroke-linecap="round" stroke-linejoin="round"/>
</g>
<defs>
<clipPath id="clip0_268_11525">
<rect width="20" height="20" fill="white"/>
</clipPath>
</defs>
</svg>
